<svg width="54" height="55" viewBox="0 0 54 55" fill="none" xmlns="http://www.w3.org/2000/svg">
<g clip-path="url(#clip0_6_87)">
<g clip-path="url(#clip1_6_87)">
<mask id="mask0_6_87" style="mask-type:luminance" maskUnits="userSpaceOnUse" x="0" y="0" width="54" height="55">
<path d="M53.88 0.699951H0.130005V54.45H53.88V0.699951Z" fill="white"/>
</mask>
<g mask="url(#mask0_6_87)">
<path d="M27.0049 2.76733C40.7058 2.76733 51.8125 13.874 51.8125 27.5746C51.8125 41.2758 40.7058 52.3829 27.0049 52.3829C13.3041 52.3829 2.19727 41.2758 2.19727 27.5746C2.19727 13.874 13.304 2.76733 27.0049 2.76733Z" fill="black" fill-opacity="0.01" stroke="white" stroke-width="2.06731"/>
<mask id="mask1_6_87" style="mask-type:luminance" maskUnits="userSpaceOnUse" x="14" y="15" width="26" height="25">
<path d="M39.4088 15.1711H14.6011V39.9788H39.4088V15.1711Z" fill="white"/>
</mask>
<g mask="url(#mask1_6_87)">
<path d="M39.3844 22.4647C39.3263 21.1466 39.1132 20.2404 38.8078 19.4551C38.4928 18.6216 38.0082 17.8754 37.3732 17.255C36.7529 16.625 36.0018 16.1354 35.1779 15.8253C34.3881 15.52 33.4866 15.3069 32.1685 15.2488C30.8405 15.1857 30.4189 15.1711 27.0509 15.1711C23.6827 15.1711 23.2612 15.1857 21.9381 15.2438C20.62 15.302 19.7138 15.5153 18.9287 15.8205C18.0951 16.1354 17.3488 16.6201 16.7285 17.255C16.0985 17.8754 15.6091 18.6265 15.2988 19.4504C14.9935 20.2404 14.7804 21.1416 14.7222 22.4597C14.6592 23.7877 14.6445 24.2093 14.6445 27.5774C14.6445 30.9455 14.6592 31.3671 14.7173 32.6901C14.7754 34.0082 14.9887 34.9144 15.2941 35.6997C15.6091 36.5333 16.0985 37.2794 16.7285 37.8998C17.3488 38.5299 18.0999 39.0194 18.9239 39.3295C19.7138 39.6348 20.615 39.848 21.9333 39.9061C23.2562 39.9644 23.678 39.9787 27.0461 39.9787C30.4143 39.9787 30.8358 39.9644 32.1589 39.9061C33.477 39.848 34.3832 39.6348 35.1682 39.3295C36.8354 38.6849 38.1535 37.3667 38.7981 35.6997C39.1033 34.9098 39.3166 34.0082 39.3748 32.6901C39.4329 31.3671 39.4475 30.9455 39.4475 27.5774C39.4475 24.2093 39.4425 23.7877 39.3844 22.4647ZM37.1505 32.5933C37.097 33.8048 36.8935 34.459 36.7239 34.8952C36.3071 35.9759 35.4493 36.8336 34.3686 37.2505C33.9324 37.4201 33.2735 37.6237 32.0667 37.6768C30.7582 37.7351 30.3658 37.7496 27.0558 37.7496C23.7457 37.7496 23.3484 37.7351 22.0447 37.6768C20.8331 37.6237 20.1789 37.4201 19.7427 37.2505C19.2049 37.0517 18.7154 36.7367 18.318 36.3248C17.9061 35.9226 17.5911 35.4379 17.3923 34.9001C17.2227 34.464 17.0192 33.8048 16.966 32.5981C16.9077 31.2896 16.8933 30.897 16.8933 27.5871C16.8933 24.2771 16.9077 23.8797 16.966 22.5761C17.0192 21.3646 17.2227 20.7104 17.3923 20.2742C17.5911 19.7363 17.9061 19.2468 18.323 18.8493C18.7251 18.4374 19.2097 18.1224 19.7477 17.9239C20.1838 17.7542 20.8429 17.5507 22.0496 17.4973C23.3581 17.4392 23.7507 17.4246 27.0605 17.4246C30.3754 17.4246 30.7679 17.4392 32.0716 17.4973C33.2832 17.5507 33.9374 17.7542 34.3736 17.9239C34.9114 18.1224 35.4009 18.4374 35.7983 18.8493C36.2102 19.2516 36.5251 19.7363 36.7239 20.2742C36.8935 20.7104 37.097 21.3693 37.1505 22.5761C37.2086 23.8846 37.2232 24.2771 37.2232 27.5871C37.2232 30.897 37.2086 31.2848 37.1505 32.5933Z" fill="white"/>
<path d="M27.0509 21.2048C23.5326 21.2048 20.6781 24.0592 20.6781 27.5775C20.6781 31.096 23.5326 33.9503 27.0509 33.9503C30.5692 33.9503 33.4236 31.096 33.4236 27.5775C33.4236 24.0592 30.5692 21.2048 27.0509 21.2048ZM27.0509 31.7114C24.7684 31.7114 22.917 29.8601 22.917 27.5775C22.917 25.2949 24.7684 23.4437 27.0509 23.4437C29.3335 23.4437 31.1847 25.2949 31.1847 27.5775C31.1847 29.8601 29.3335 31.7114 27.0509 31.7114Z" fill="white"/>
<path d="M35.1636 20.9526C35.1636 21.7742 34.4974 22.4403 33.6756 22.4403C32.8541 22.4403 32.1879 21.7742 32.1879 20.9526C32.1879 20.1308 32.8541 19.4648 33.6756 19.4648C34.4974 19.4648 35.1636 20.1308 35.1636 20.9526Z" fill="white"/>
</g>
</g>
</g>
</g>
<defs>
<clipPath id="clip0_6_87">
<rect width="53.75" height="53.75" fill="white" transform="translate(0.130005 0.699951)"/>
</clipPath>
<clipPath id="clip1_6_87">
<rect width="53.75" height="53.75" fill="white" transform="translate(0.130005 0.699951)"/>
</clipPath>
</defs>
</svg>
