<svg width="55" height="53" viewBox="0 0 55 53" fill="none" xmlns="http://www.w3.org/2000/svg">
<g clip-path="url(#clip0_6_102)">
<g clip-path="url(#clip1_6_102)">
<mask id="mask0_6_102" style="mask-type:luminance" maskUnits="userSpaceOnUse" x="0" y="0" width="55" height="53">
<path d="M54.0769 0.199951H0.332886V52.93H54.0769V0.199951Z" fill="white"/>
</mask>
<g mask="url(#mask0_6_102)">
<path d="M27.7122 2.22827C41.1527 2.22827 52.049 13.1242 52.049 26.5648C52.049 40.006 41.1527 50.9023 27.7122 50.9023C14.2709 50.9023 3.37488 40.006 3.37488 26.5648C3.37488 13.1242 14.2709 2.22827 27.7122 2.22827Z" fill="black" fill-opacity="0.01" stroke="white" stroke-width="2.02808"/>
<mask id="mask1_6_102" style="mask-type:luminance" maskUnits="userSpaceOnUse" x="15" y="14" width="25" height="25">
<path d="M39.8804 14.3967H15.5435V38.7337H39.8804V14.3967Z" fill="white"/>
</mask>
<g mask="url(#mask1_6_102)">
<path d="M28.0425 14.3967C21.3712 14.3977 17.8251 18.6719 17.8251 23.3324C17.8251 25.4934 19.0328 28.1897 20.9666 29.0445C21.5182 29.293 21.4452 28.9898 21.9198 27.1746C21.9573 27.0235 21.938 26.8927 21.8163 26.7518C19.0521 23.5545 21.2769 16.9815 27.6481 16.9815C36.8687 16.9815 35.1459 29.7401 29.2523 29.7401C27.7332 29.7401 26.6016 28.5476 26.9595 27.0722C27.3935 25.3149 28.2433 23.4257 28.2433 22.1592C28.2433 18.967 23.4875 19.4406 23.4875 23.6701C23.4875 24.9772 23.9499 25.8594 23.9499 25.8594C23.9499 25.8594 22.4197 32.041 22.1358 33.196C21.6551 35.1511 22.2006 38.3159 22.2483 38.5886C22.2777 38.7387 22.446 38.7864 22.5404 38.6627C22.6914 38.4649 24.5411 35.8264 25.0592 33.919C25.2478 33.2244 26.0215 30.4054 26.0215 30.4054C26.5316 31.3261 28.002 32.0968 29.5687 32.0968C34.2292 32.0968 37.5978 28.0001 37.5978 22.9167C37.5816 18.0432 33.4108 14.3967 28.0425 14.3967Z" fill="white"/>
</g>
</g>
</g>
</g>
<defs>
<clipPath id="clip0_6_102">
<rect width="53.75" height="52.73" fill="white" transform="translate(0.329956 0.199951)"/>
</clipPath>
<clipPath id="clip1_6_102">
<rect width="53.744" height="52.73" fill="white" transform="translate(0.332886 0.199951)"/>
</clipPath>
</defs>
</svg>
