<svg width="353" height="314" viewBox="0 0 353 314" fill="none" xmlns="http://www.w3.org/2000/svg">
<path d="M211.016 28.0858C234.941 28.4347 268.868 37.1569 278.086 58.788C287.994 82.0401 286.822 87.0131 302.992 112.342C319.139 137.636 310.51 173.223 293.252 188.341C268.807 209.756 247.556 204.441 204.152 204.275C173.754 204.159 139.788 223.766 122.569 228.871C110.999 232.302 86.2889 236.024 70.6 221.719C53.2752 205.923 57.1339 176.712 54.1267 165.548C50.9767 153.853 30.1172 112.501 52.5578 80.2447C79.6211 41.3436 140.016 27.0503 211.016 28.0858Z" fill="url(#paint0_linear_5_137)"/>
<path d="M246.883 263.205C255.519 261.81 287.501 256.115 288.938 267.656C290.146 277.367 264.216 276.555 251.807 276.03C236.02 275.361 203.805 278.419 202.592 272.601C201.864 269.11 211.474 267.249 221.391 266.728C229.544 266.3 234.235 265.247 246.883 263.205Z" fill="url(#paint1_linear_5_137)"/>
<path d="M102.033 271.975C94.1338 271.182 60.7258 266.616 62.3634 278.123C63.6706 287.311 88.3163 283.717 99.4939 284.52C115.281 285.654 142.233 284.161 142.762 278.281C143.079 274.753 134.26 273.562 125.292 273.727C117.921 273.863 113.602 273.137 102.033 271.975Z" fill="url(#paint2_linear_5_137)"/>
<path d="M152.101 174.198C152.101 173.835 152.432 173.54 152.841 173.54H161.166C161.575 173.54 161.907 173.835 161.907 174.198V181.604C161.907 181.779 161.829 181.946 161.69 182.07C161.551 182.193 161.363 182.262 161.166 182.262H152.841C152.644 182.262 152.456 182.193 152.317 182.07C152.179 181.946 152.101 181.779 152.101 181.604V174.198Z" fill="url(#paint3_linear_5_137)"/>
<path d="M156.66 180.452C156.6 180.452 156.54 180.44 156.486 180.416C156.432 180.392 156.385 180.358 156.349 180.315L153.946 177.524C153.913 177.488 153.888 177.446 153.873 177.401C153.859 177.356 153.854 177.309 153.86 177.263C153.866 177.216 153.883 177.171 153.909 177.131C153.935 177.09 153.97 177.054 154.012 177.026C154.053 176.997 154.101 176.977 154.152 176.965C154.203 176.953 154.256 176.951 154.308 176.958C154.36 176.965 154.41 176.981 154.455 177.006C154.5 177.03 154.539 177.062 154.569 177.1L156.627 179.491L159.416 175.514C159.473 175.44 159.56 175.388 159.66 175.37C159.759 175.351 159.862 175.367 159.948 175.415C160.034 175.463 160.096 175.538 160.121 175.626C160.146 175.713 160.132 175.806 160.082 175.884L156.993 180.289C156.959 180.336 156.913 180.376 156.858 180.405C156.804 180.433 156.742 180.45 156.679 180.453L156.66 180.452Z" fill="#FDE1A7"/>
<path d="M152.101 187.058C152.101 186.694 152.432 186.399 152.841 186.399H161.166C161.575 186.399 161.907 186.694 161.907 187.058V194.464C161.907 194.638 161.829 194.806 161.69 194.929C161.551 195.053 161.363 195.122 161.166 195.122H152.841C152.644 195.122 152.456 195.053 152.317 194.929C152.179 194.806 152.101 194.638 152.101 194.464V187.058Z" fill="url(#paint4_linear_5_137)"/>
<path d="M156.66 193.312C156.6 193.312 156.54 193.3 156.486 193.276C156.432 193.252 156.385 193.218 156.349 193.175L153.946 190.384C153.913 190.348 153.888 190.306 153.873 190.261C153.859 190.216 153.854 190.169 153.86 190.123C153.866 190.076 153.883 190.031 153.909 189.99C153.935 189.95 153.97 189.914 154.012 189.886C154.053 189.857 154.101 189.837 154.152 189.825C154.203 189.813 154.256 189.811 154.308 189.818C154.36 189.825 154.41 189.841 154.455 189.866C154.5 189.89 154.539 189.922 154.569 189.96L156.627 192.351L159.416 188.374C159.473 188.3 159.56 188.248 159.66 188.229C159.759 188.211 159.862 188.227 159.948 188.275C160.034 188.323 160.096 188.398 160.121 188.485C160.146 188.573 160.132 188.665 160.082 188.744L156.993 193.148C156.959 193.196 156.913 193.236 156.858 193.265C156.804 193.293 156.742 193.31 156.679 193.312L156.66 193.312Z" fill="#FDE1A7"/>
<path d="M152.101 199.918C152.101 199.554 152.432 199.26 152.841 199.26H161.166C161.575 199.26 161.907 199.554 161.907 199.918V207.324C161.907 207.498 161.829 207.666 161.69 207.789C161.551 207.913 161.363 207.982 161.166 207.982H152.841C152.644 207.982 152.456 207.913 152.317 207.789C152.179 207.666 152.101 207.498 152.101 207.324V199.918Z" fill="url(#paint5_linear_5_137)"/>
<path d="M156.66 206.172C156.6 206.172 156.54 206.159 156.486 206.135C156.432 206.112 156.385 206.077 156.349 206.034L153.946 203.243C153.913 203.207 153.888 203.165 153.873 203.12C153.859 203.076 153.854 203.028 153.86 202.982C153.866 202.935 153.883 202.891 153.909 202.85C153.935 202.809 153.97 202.774 154.012 202.745C154.053 202.717 154.101 202.696 154.152 202.684C154.203 202.673 154.256 202.67 154.308 202.677C154.36 202.684 154.41 202.701 154.455 202.725C154.5 202.749 154.539 202.782 154.569 202.82L156.627 205.211L159.416 201.234C159.471 201.155 159.559 201.099 159.66 201.079C159.762 201.058 159.868 201.074 159.956 201.123C160.045 201.171 160.107 201.25 160.131 201.34C160.154 201.43 160.137 201.525 160.082 201.603L156.993 206.008C156.959 206.056 156.913 206.096 156.858 206.124C156.804 206.153 156.742 206.169 156.679 206.172L156.66 206.172Z" fill="#FDE1A7"/>
<path d="M136.42 125.208H191.821V169.124H136.42V125.208Z" fill="url(#paint6_linear_5_137)"/>
<path d="M142.058 128.944H162.813V130.688H142.058V128.944Z" fill="url(#paint7_linear_5_137)"/>
<path d="M186.183 131.183C186.183 130.998 186.101 130.82 185.953 130.689C185.806 130.558 185.607 130.485 185.399 130.485H180.692C180.484 130.485 180.284 130.558 180.137 130.689C179.99 130.82 179.908 130.998 179.908 131.183V164.327H186.183V131.183Z" fill="url(#paint8_linear_5_137)"/>
<path d="M186.183 143.801V131.183C186.183 130.998 186.101 130.82 185.953 130.689C185.806 130.558 185.607 130.485 185.399 130.485H180.692C180.484 130.485 180.284 130.558 180.137 130.689C179.99 130.82 179.908 130.998 179.908 131.183V143.801H186.183Z" fill="url(#paint9_linear_5_137)"/>
<path d="M167.258 138.596C167.258 138.411 167.176 138.234 167.029 138.103C166.882 137.972 166.682 137.899 166.474 137.899H161.767C161.559 137.899 161.36 137.972 161.213 138.103C161.066 138.234 160.983 138.411 160.983 138.596V164.327H167.258V138.596Z" fill="url(#paint10_linear_5_137)"/>
<path d="M167.258 153.453V138.596C167.258 138.411 167.176 138.234 167.029 138.103C166.882 137.972 166.682 137.899 166.474 137.899H161.767C161.559 137.899 161.36 137.972 161.213 138.103C161.066 138.234 160.983 138.411 160.983 138.596V153.453H167.258Z" fill="url(#paint11_linear_5_137)"/>
<path d="M176.721 143.481C176.721 143.296 176.638 143.118 176.491 142.988C176.344 142.857 176.144 142.783 175.936 142.783H171.23C171.022 142.783 170.822 142.857 170.675 142.988C170.528 143.118 170.445 143.296 170.445 143.481V164.327H176.721V143.481Z" fill="url(#paint12_linear_5_137)"/>
<path d="M176.721 153.453V143.481C176.721 143.296 176.638 143.118 176.491 142.988C176.344 142.857 176.144 142.783 175.936 142.783H171.23C171.022 142.783 170.822 142.857 170.675 142.988C170.528 143.118 170.445 143.296 170.445 143.481V153.453H176.721Z" fill="url(#paint13_linear_5_137)"/>
<path d="M157.796 133.886C157.796 133.701 157.713 133.524 157.566 133.393C157.419 133.262 157.22 133.189 157.012 133.189H152.305C152.097 133.189 151.897 133.262 151.75 133.393C151.603 133.524 151.521 133.701 151.521 133.886V164.327H157.796V133.886Z" fill="url(#paint14_linear_5_137)"/>
<path d="M157.796 144.673V133.886C157.796 133.701 157.713 133.524 157.566 133.393C157.419 133.262 157.22 133.189 157.012 133.189H152.305C152.097 133.189 151.897 133.262 151.75 133.393C151.603 133.524 151.521 133.701 151.521 133.886V144.673H157.796Z" fill="url(#paint15_linear_5_137)"/>
<path d="M148.334 149.238C148.334 149.053 148.251 148.875 148.104 148.744C147.957 148.613 147.757 148.54 147.549 148.54H142.843C142.635 148.54 142.435 148.613 142.288 148.744C142.141 148.875 142.058 149.053 142.058 149.238V164.327H148.334V149.238Z" fill="url(#paint16_linear_5_137)"/>
<path d="M148.334 158.047V149.238C148.334 149.053 148.251 148.875 148.104 148.744C147.957 148.613 147.757 148.54 147.549 148.54H142.843C142.635 148.54 142.435 148.613 142.288 148.744C142.141 148.875 142.058 149.053 142.058 149.238V158.047H148.334Z" fill="url(#paint17_linear_5_137)"/>
<path d="M186.183 164.676H142.156C142.052 164.676 141.952 164.639 141.879 164.574C141.805 164.508 141.764 164.419 141.764 164.327C141.764 164.234 141.805 164.146 141.879 164.08C141.952 164.015 142.052 163.978 142.156 163.978H186.183C186.287 163.978 186.387 164.015 186.461 164.08C186.534 164.146 186.575 164.234 186.575 164.327C186.575 164.419 186.534 164.508 186.461 164.574C186.387 164.639 186.287 164.676 186.183 164.676Z" fill="#1AA9E8"/>
<path d="M62.1672 59.3115H117.765V88.7054H62.1672V59.3115Z" fill="url(#paint18_linear_5_137)"/>
<path d="M69.741 84.3442H85.9621V65.9985L69.741 84.3442ZM100.997 79.8958V84.3442H110.999V69.313L100.997 79.8958Z" fill="#00E2EC"/>
<path d="M85.9622 65.9985V84.3442H100.997V79.8958L85.9622 65.9985ZM115.837 75.055L110.999 69.313V84.3442H115.837V75.055Z" fill="#0090B2"/>
<path d="M92.4664 63.1492H113.744V64.8936H92.4664V63.1492Z" fill="url(#paint19_linear_5_137)"/>
<path d="M80.1647 79.6667C80.098 79.6668 80.0323 79.6517 79.974 79.6229C79.9156 79.5941 79.8665 79.5525 79.8313 79.502L70.5514 66.2279C70.5229 66.1889 70.5035 66.1454 70.4942 66.0997C70.4849 66.054 70.4859 66.0072 70.4973 65.9619C70.5086 65.9166 70.53 65.8737 70.5601 65.8359C70.5903 65.798 70.6287 65.7659 70.673 65.7413C70.7173 65.7168 70.7667 65.7004 70.8182 65.6931C70.8697 65.6858 70.9224 65.6877 70.9731 65.6987C71.0238 65.7097 71.0715 65.7295 71.1134 65.7571C71.1554 65.7847 71.1907 65.8195 71.2174 65.8594L80.4973 79.1336C80.5342 79.1864 80.5546 79.247 80.5563 79.3092C80.5581 79.3713 80.5411 79.4328 80.5072 79.4871C80.4733 79.5415 80.4236 79.5868 80.3634 79.6184C80.3032 79.6499 80.2346 79.6666 80.1647 79.6667Z" fill="#1AA9E8"/>
<path d="M70.8843 67.919C72.0486 67.919 72.9925 67.0794 72.9925 66.0437C72.9925 65.008 72.0486 64.1685 70.8843 64.1685C69.72 64.1685 68.7761 65.008 68.7761 66.0437C68.7761 67.0794 69.72 67.919 70.8843 67.919Z" fill="#F95FC3"/>
<path d="M80.1643 80.5134C80.9067 80.5134 81.5085 79.978 81.5085 79.3177C81.5085 78.6574 80.9067 78.1221 80.1643 78.1221C79.422 78.1221 78.8202 78.6574 78.8202 79.3177C78.8202 79.978 79.422 80.5134 80.1643 80.5134Z" fill="white"/>
<path d="M124.738 95.1979C122.888 91.0975 122.416 86.607 123.382 82.2726C124.847 75.6525 129.384 70.2656 135.414 67.0489L129.771 57.1847C120.463 61.901 113.428 70.0553 111.195 80.1378C109.658 87.0824 110.62 93.9486 113.524 100.002L124.738 95.1979ZM138.558 65.6216C143.151 63.8768 148.36 63.2976 153.629 64.2204C161.274 65.5595 167.451 69.7828 171.028 75.366L182.244 70.5611C177.011 61.9561 167.662 55.4183 156.029 53.3805C147.921 51.9601 139.908 52.937 132.915 55.7578L138.558 65.6216ZM183.777 73.3896L172.563 78.1938C174.417 82.2961 174.889 86.7894 173.923 91.1264C171.174 103.541 157.632 111.623 143.676 109.178C136.028 107.839 129.849 103.612 126.272 98.026L115.057 102.831C120.288 111.439 129.64 117.98 141.276 120.018C161.963 123.642 182.035 111.662 186.109 93.2612C187.648 86.3135 186.684 79.4445 183.777 73.3896Z" fill="white"/>
<path d="M127.035 99.1479C124.328 95.4429 122.89 91.1179 122.896 86.6992C122.896 79.952 126.176 73.887 131.394 69.6944L123.715 60.9861C115.607 67.2134 110.475 76.423 110.475 86.6992C110.475 93.7775 112.911 100.349 117.076 105.789L127.035 99.1479Z" fill="url(#paint20_linear_5_137)"/>
<path d="M134.17 67.7535C138.297 65.2523 143.282 63.7887 148.653 63.7887C156.444 63.7887 163.422 66.8705 168.145 71.7336L178.105 65.0915C171.103 57.5482 160.509 52.7405 148.653 52.7405C140.389 52.7405 132.739 55.0763 126.491 59.0456L134.17 67.7535Z" fill="url(#paint21_linear_5_137)"/>
<path d="M180.224 67.6033L170.265 74.2444C172.975 77.9508 174.414 82.2781 174.408 86.6994C174.408 99.3525 162.877 109.61 148.652 109.61C140.858 109.61 133.877 106.526 129.154 101.659L119.194 108.301C126.196 115.848 136.793 120.658 148.652 120.658C169.736 120.658 186.828 105.454 186.828 86.699C186.829 79.6187 184.391 73.0445 180.224 67.6033Z" fill="url(#paint22_linear_5_137)"/>
<path d="M133.721 91.6925C135.992 97.0644 141.819 100.887 148.652 100.887C153.556 100.887 157.941 98.9177 160.867 95.8206L148.652 86.6992L133.721 91.6925Z" fill="url(#paint23_linear_5_137)"/>
<path d="M154.31 73.4329L148.652 86.6994L160.867 95.8207C163.197 93.3541 164.603 90.1733 164.603 86.6994C164.603 80.636 160.325 75.4637 154.31 73.4329Z" fill="url(#paint24_linear_5_137)"/>
<path d="M154.31 73.4328C152.503 72.8223 150.586 72.5099 148.653 72.511C139.844 72.511 132.702 78.8632 132.702 86.6993C132.702 88.457 133.064 90.1389 133.721 91.6925L148.652 86.6993L154.31 73.4328Z" fill="url(#paint25_linear_5_137)"/>
<path d="M194.978 44.2656H280.515V91.9326H194.978V44.2656Z" fill="url(#paint26_linear_5_137)"/>
<path d="M203.639 53.9515C204.803 53.9515 205.747 53.1119 205.747 52.0762C205.747 51.0405 204.803 50.2009 203.639 50.2009C202.475 50.2009 201.531 51.0405 201.531 52.0762C201.531 53.1119 202.475 53.9515 203.639 53.9515Z" fill="#FDE1A7"/>
<path d="M214.951 53.9515C216.115 53.9515 217.059 53.1119 217.059 52.0762C217.059 51.0405 216.115 50.2009 214.951 50.2009C213.786 50.2009 212.843 51.0405 212.843 52.0762C212.843 53.1119 213.786 53.9515 214.951 53.9515Z" fill="#00E2EC"/>
<path d="M226.262 53.9515C227.427 53.9515 228.371 53.1119 228.371 52.0762C228.371 51.0405 227.427 50.2009 226.262 50.2009C225.098 50.2009 224.154 51.0405 224.154 52.0762C224.154 53.1119 225.098 53.9515 226.262 53.9515Z" fill="#C7A0F6"/>
<path d="M201.531 57.1016H228.371V58.846H201.531V57.1016Z" fill="url(#paint27_linear_5_137)"/>
<path d="M273.962 56.0329C272.662 53.7574 270.714 51.6718 267.947 51.752C261.934 51.9264 258.011 65.882 253.827 66.0564C249.644 66.2309 251.082 51.9847 245.722 52.1009C238.989 52.2471 238.727 79.8376 230.294 80.4771C221.861 81.1166 219.965 65.6493 216.174 65.882C212.383 66.1147 210.753 78.0097 210.095 80.5936C209.436 83.1775 206.107 83.6753 206.107 83.6753H273.962V56.0329Z" fill="url(#paint28_linear_5_137)"/>
<path d="M273.962 55.8804C264.679 56.2293 262.717 78.442 253.174 77.9186C245.256 77.4846 246.571 65.5331 239.642 65.1842C232.712 64.8353 229.444 79.3142 221.077 79.7793C217.008 80.0053 213.756 77.7442 210.029 78.0348C206.303 78.3254 202.446 82.7448 201.531 83.6753H273.962V55.8804Z" fill="url(#paint29_linear_5_137)"/>
<path d="M148.389 38.1748H183.035V47.9437H148.389V38.1748Z" fill="url(#paint30_linear_5_137)"/>
<path d="M179.858 44.7601C178.487 44.7601 177.798 43.9702 177.19 43.2731C176.62 42.62 176.129 42.0562 175.142 42.0562C174.155 42.0562 173.663 42.62 173.094 43.2731C172.486 43.9702 171.797 44.7601 170.426 44.7601C169.055 44.7601 168.366 43.9702 167.759 43.2731C167.189 42.62 166.697 42.0562 165.711 42.0562C164.724 42.0562 164.232 42.62 163.663 43.2731C163.055 43.9702 162.366 44.7601 160.995 44.7601C159.625 44.7601 158.936 43.9702 158.329 43.2731C157.76 42.62 157.268 42.0562 156.282 42.0562C155.295 42.0562 154.803 42.62 154.234 43.2731C153.627 43.9702 152.938 44.7601 151.567 44.7601C151.463 44.7601 151.363 44.7233 151.289 44.6579C151.216 44.5924 151.175 44.5037 151.175 44.4112C151.175 44.3186 151.216 44.2299 151.289 44.1645C151.363 44.099 151.463 44.0623 151.567 44.0623C152.554 44.0623 153.045 43.4985 153.615 42.8454C154.222 42.1483 154.911 41.3584 156.282 41.3584C157.653 41.3584 158.341 42.1486 158.949 42.8454C159.518 43.4985 160.009 44.0623 160.995 44.0623C161.982 44.0623 162.474 43.4985 163.043 42.8454C163.651 42.1483 164.34 41.3584 165.711 41.3584C167.082 41.3584 167.771 42.1483 168.378 42.8454C168.948 43.4985 169.44 44.0623 170.426 44.0623C171.413 44.0623 171.905 43.4985 172.474 42.8454C173.082 42.1483 173.771 41.3584 175.142 41.3584C176.513 41.3584 177.202 42.1483 177.81 42.8454C178.379 43.4985 178.871 44.0623 179.858 44.0623C179.962 44.0623 180.062 44.099 180.135 44.1645C180.209 44.2299 180.25 44.3186 180.25 44.4112C180.25 44.5037 180.209 44.5924 180.135 44.6579C180.062 44.7233 179.962 44.7601 179.858 44.7601Z" fill="#05C5DA"/>
<path d="M153.258 58.7235C153.18 58.7236 153.103 58.7029 153.039 58.664C152.974 58.6251 152.923 58.5699 152.894 58.5053C152.865 58.4408 152.858 58.37 152.874 58.3019C152.89 58.2339 152.929 58.1717 152.986 58.1234L165.147 47.6923C165.222 47.6281 165.322 47.5929 165.426 47.5945C165.53 47.5962 165.63 47.6345 165.702 47.7011C165.774 47.7676 165.814 47.857 165.812 47.9495C165.81 48.0421 165.767 48.1301 165.692 48.1944L153.53 58.6255C153.457 58.6885 153.36 58.7237 153.258 58.7235Z" fill="#1AA9E8"/>
<path d="M153.258 59.7557C154.115 59.7557 154.811 59.1374 154.811 58.3748C154.811 57.6121 154.115 56.9939 153.258 56.9939C152.401 56.9939 151.706 57.6121 151.706 58.3748C151.706 59.1374 152.401 59.7557 153.258 59.7557Z" fill="#FDE1A7"/>
<path d="M216.306 147.576C216.454 147.801 216.696 147.964 216.98 148.03C217.263 148.096 217.565 148.059 217.818 147.928L235.826 140.696C235.951 140.631 236.06 140.544 236.148 140.441C236.236 140.338 236.3 140.221 236.337 140.096C236.374 139.971 236.382 139.841 236.363 139.714C236.343 139.586 236.295 139.462 236.222 139.351L228.04 127.237C227.967 127.126 227.87 127.028 227.754 126.95C227.639 126.872 227.507 126.815 227.367 126.783C227.226 126.75 227.08 126.742 226.936 126.76C226.792 126.777 226.654 126.82 226.529 126.885L206.496 131.824C206.37 131.889 206.261 131.976 206.173 132.078C206.085 132.181 206.021 132.298 205.984 132.423C205.947 132.548 205.938 132.678 205.958 132.806C205.978 132.934 206.025 133.057 206.099 133.169L216.306 147.576Z" fill="url(#paint31_linear_5_137)"/>
<path d="M237.202 139.553L228.489 126.651C228.331 126.412 228.073 126.238 227.771 126.167C227.469 126.097 227.148 126.136 226.879 126.276L205.542 131.536C205.408 131.606 205.292 131.698 205.198 131.807C205.105 131.917 205.037 132.042 204.997 132.175C204.958 132.308 204.949 132.446 204.97 132.582C204.991 132.718 205.042 132.85 205.12 132.968L215.991 148.312C216.149 148.552 216.407 148.726 216.709 148.796C217.011 148.866 217.332 148.827 217.601 148.687L236.781 140.985C237.05 140.844 237.246 140.615 237.325 140.346C237.404 140.078 237.359 139.792 237.202 139.553ZM217.483 146.131L208.27 132.883L226.999 127.868L234.99 139.512L217.483 146.131Z" fill="url(#paint32_linear_5_137)"/>
<path d="M230.21 135.5L215.981 140.495L214.828 139.025L229.272 134.217L230.21 135.5Z" fill="#FDE1A7"/>
<path d="M220.494 135.664C221.367 135.664 222.075 135.034 222.075 134.257C222.075 133.48 221.367 132.85 220.494 132.85C219.621 132.85 218.913 133.48 218.913 134.257C218.913 135.034 219.621 135.664 220.494 135.664Z" fill="#F95FC3"/>
<path d="M215.106 137.506C215.98 137.506 216.688 136.876 216.688 136.099C216.688 135.322 215.98 134.692 215.106 134.692C214.233 134.692 213.525 135.322 213.525 136.099C213.525 136.876 214.233 137.506 215.106 137.506Z" fill="#FE687E"/>
<path d="M225.552 133.88C226.338 133.88 226.975 133.313 226.975 132.614C226.975 131.915 226.338 131.348 225.552 131.348C224.766 131.348 224.129 131.915 224.129 132.614C224.129 133.313 224.766 133.88 225.552 133.88Z" fill="#00E2EC"/>
<path d="M249.388 230.499C248.928 223.531 250.689 214.987 250.624 212.312L237.818 211.659C237.818 211.659 237.571 219.81 237.687 226.865C237.818 234.832 239.681 257.684 239.125 261.26C238.779 263.489 236.733 264.927 234.838 265.988C235.748 266.403 237.36 266.688 239.665 265.674C242.273 264.526 245.21 263.243 247.282 263.179C247.198 261.976 247.114 260.85 247.1 260.097C247.035 256.463 249.944 238.902 249.388 230.499Z" fill="url(#paint33_linear_5_137)"/>
<path d="M239.665 265.673C237.36 266.688 235.749 266.403 234.838 265.988C234.345 266.264 233.862 266.517 233.422 266.749C231.746 267.634 229.062 267.982 229.353 268.907C229.581 269.633 235.913 269.964 239.305 269.104C240.907 268.698 243.652 267.389 243.652 267.389L243.758 269.169C243.758 269.169 246.802 269.371 247.129 269.051C247.626 268.565 247.455 265.701 247.282 263.178C245.21 263.243 242.273 264.526 239.665 265.673Z" fill="url(#paint34_linear_5_137)"/>
<path d="M264.653 265.912C267.376 264.713 270.459 263.368 272.538 263.417C272.453 262.215 272.354 261.087 272.3 260.33C272.137 258.004 272.072 253.992 272.399 245.56C272.726 237.129 271.026 231.198 270.438 226.197C269.85 221.196 269.85 215.905 269.784 213.23L257.592 214.567C257.592 214.567 258.53 222.552 259.357 229.569C260.139 236.198 264.881 257.451 264.326 261.027C263.984 263.225 261.537 265.025 259.721 266.179C260.609 266.618 262.259 266.966 264.653 265.912Z" fill="url(#paint35_linear_5_137)"/>
<path d="M254.552 269.517C254.552 270.011 260.9 270.202 264.293 269.343C265.895 268.937 268.639 267.627 268.639 267.627L268.746 269.408C268.746 269.408 272.006 269.517 272.333 269.197C272.827 268.713 272.714 265.907 272.538 263.417C270.458 263.368 267.376 264.713 264.652 265.912C262.258 266.966 260.609 266.618 259.721 266.179C259.216 266.499 258.757 266.773 258.409 266.988C256.808 267.976 254.552 268.558 254.552 269.517Z" fill="url(#paint36_linear_5_137)"/>
<path d="M265.927 171.538C267.299 173.398 271.026 179.33 272.398 185.522C273.665 191.234 273.575 194.506 274.261 198.954C274.948 203.403 278.478 213.172 278.282 213.782C278.086 214.393 276.517 215.309 273.445 215.381C271.149 215.436 269.457 215.265 265.339 216.486C261.221 217.707 256.579 218.405 250.957 217.882C245.336 217.359 240.89 215.265 238.08 215.207C235.268 215.149 231.542 215.149 231.15 214.451C230.758 213.753 233.31 208.357 233.863 204.973C234.487 201.153 235.857 193.866 238.863 186.656C241.682 179.898 245.662 172.119 245.662 172.119C245.662 172.119 251.513 172.09 255.729 172.003C259.945 171.915 265.927 171.538 265.927 171.538Z" fill="url(#paint37_linear_5_137)"/>
<path d="M254.715 215.793C253.471 215.793 252.208 215.733 250.916 215.612C247.814 215.323 245.018 214.549 242.771 213.927C240.905 213.411 239.294 212.964 238.07 212.939L237.295 212.924C235.113 212.884 232.641 212.839 231.52 212.473C231.471 212.457 231.427 212.433 231.389 212.402C231.351 212.371 231.321 212.334 231.299 212.292C231.277 212.251 231.265 212.206 231.263 212.16C231.261 212.114 231.269 212.069 231.287 212.026C231.304 211.983 231.332 211.943 231.366 211.909C231.401 211.876 231.443 211.849 231.49 211.829C231.537 211.81 231.587 211.799 231.639 211.797C231.69 211.795 231.742 211.803 231.79 211.818C232.787 212.144 235.296 212.19 237.311 212.227L238.088 212.241C239.421 212.269 241.082 212.728 243.004 213.261C245.333 213.906 247.972 214.636 250.997 214.918C255.962 215.38 260.481 214.942 265.214 213.539C268.822 212.469 270.616 212.45 272.515 212.43C272.815 212.426 273.118 212.423 273.433 212.416C276.185 212.35 277.331 211.622 277.617 211.399C277.656 211.369 277.701 211.346 277.75 211.332C277.798 211.317 277.85 211.311 277.901 211.314C277.953 211.317 278.003 211.33 278.049 211.35C278.095 211.37 278.136 211.399 278.17 211.433C278.204 211.468 278.23 211.508 278.246 211.551C278.263 211.595 278.269 211.641 278.266 211.686C278.262 211.732 278.249 211.777 278.226 211.818C278.203 211.859 278.171 211.895 278.132 211.925C277.702 212.259 276.385 213.044 273.454 213.113C273.135 213.121 272.827 213.124 272.524 213.127C270.687 213.147 268.953 213.165 265.462 214.2C261.851 215.271 258.363 215.793 254.715 215.793Z" fill="#CFAEFF"/>
<path d="M255.967 213.469C254.406 213.469 252.768 213.388 251.047 213.228C247.795 212.925 244.902 212.131 242.35 211.432C240.505 210.925 238.911 210.488 237.649 210.379C236.606 210.29 235.658 210.364 234.823 210.43C233.834 210.509 232.978 210.576 232.265 210.343C232.216 210.328 232.17 210.305 232.131 210.274C232.092 210.243 232.06 210.205 232.038 210.163C232.015 210.121 232.002 210.076 232 210.029C231.997 209.983 232.005 209.937 232.023 209.893C232.041 209.849 232.069 209.809 232.105 209.775C232.14 209.741 232.183 209.714 232.231 209.695C232.279 209.676 232.33 209.665 232.382 209.664C232.435 209.663 232.487 209.671 232.535 209.688C233.083 209.868 233.858 209.806 234.753 209.735C235.622 209.666 236.608 209.589 237.724 209.685C239.066 209.8 240.695 210.247 242.581 210.764C245.099 211.455 247.954 212.239 251.129 212.534C256.686 213.05 261.344 212.722 265.368 211.53C268.943 210.47 269.941 210.498 271.445 210.538C271.699 210.545 271.97 210.553 272.271 210.555C275.133 210.579 276.323 209.909 276.972 209.405C277.011 209.375 277.056 209.352 277.104 209.337C277.153 209.323 277.205 209.317 277.256 209.32C277.308 209.323 277.358 209.335 277.404 209.356C277.45 209.376 277.491 209.404 277.525 209.439C277.559 209.474 277.585 209.514 277.601 209.557C277.618 209.601 277.624 209.646 277.621 209.692C277.617 209.738 277.604 209.783 277.581 209.824C277.558 209.865 277.526 209.901 277.487 209.931C276.753 210.501 275.43 211.254 272.408 211.254L272.264 211.253C271.983 211.25 271.702 211.244 271.421 211.236C269.947 211.195 269.058 211.171 265.616 212.191C262.738 213.045 259.552 213.468 255.967 213.469Z" fill="#CFAEFF"/>
<path d="M229.091 134.453C228.495 134.63 227.489 135.108 227.685 135.98C227.881 136.852 229.648 138.384 230.236 138.616C230.824 138.848 230.431 137.463 229.908 136.852C229.385 136.241 230.844 137.631 231.313 137.492C231.656 137.39 231.771 136.808 231.395 135.893C231.06 135.078 232.556 134.323 231.901 134.206C231.248 134.09 229.875 134.221 229.091 134.453Z" fill="url(#paint38_linear_5_137)"/>
<path d="M238.288 144.545C238.457 144.348 243.226 141.408 243.58 141.292C244.077 141.131 251.807 150.11 252.885 151.113C253.964 152.116 251.46 157.121 249.4 157.47C247.341 157.819 237.842 145.066 238.288 144.545Z" fill="url(#paint39_linear_5_137)"/>
<path d="M224.645 134.061C225.339 133.444 228.797 133.799 229.254 133.916C229.712 134.032 230.856 133.189 231.542 133.159C232.228 133.13 234.328 133.472 235.562 134.09C236.93 134.775 243.766 141.475 243.766 141.475C243.766 141.475 243.669 143.219 241.952 144.266C240.231 145.315 239.128 144.835 239.128 144.835C239.128 144.835 236.706 140.908 235.873 140.428C235.039 139.948 232.98 140.755 231.285 140.386C229.686 140.037 227.465 138.204 228.078 137.724C228.729 137.215 230.286 138.39 230.987 138.597C232.024 138.902 233.969 138.535 234.01 137.833C234.059 136.983 230.96 136.194 228.617 135.565C226.959 135.121 224.082 134.562 224.645 134.061Z" fill="url(#paint40_linear_5_137)"/>
<path d="M239.723 145.291C238.674 145.291 238.071 144.84 238.031 144.809C237.956 144.747 237.911 144.662 237.905 144.572C237.9 144.481 237.934 144.392 238.001 144.324C238.068 144.255 238.162 144.213 238.263 144.205C238.365 144.197 238.466 144.225 238.545 144.282C238.59 144.315 239.732 145.131 241.739 143.973C243.283 143.081 243.373 141.478 243.374 141.462C243.376 141.416 243.388 141.371 243.41 141.33C243.431 141.288 243.461 141.251 243.499 141.219C243.537 141.188 243.581 141.164 243.63 141.148C243.678 141.132 243.729 141.125 243.781 141.127C243.997 141.134 244.165 141.295 244.158 141.487C244.155 141.567 244.061 143.465 242.165 144.559C241.199 145.117 240.375 145.291 239.723 145.291Z" fill="#1AA9E8"/>
<path d="M263.312 136.59C264.358 138.509 268.28 145.196 268.019 150.371C267.758 155.547 266.188 160.896 265.992 164.909C265.796 168.921 265.927 171.537 265.927 171.537C265.927 171.537 261.613 173.921 255.075 173.747C248.737 173.578 245.662 172.119 245.662 172.119C245.662 172.119 245.474 165.964 244.682 161.769C244.06 158.483 242.54 156.564 242.524 152.872C242.503 148.147 250.679 142.042 253.114 138.742C255.116 136.029 263.312 136.59 263.312 136.59Z" fill="url(#paint41_linear_5_137)"/>
<path d="M255.769 174.105C255.537 174.105 255.302 174.102 255.064 174.096C248.707 173.926 245.606 172.488 245.478 172.426C245.386 172.383 245.317 172.309 245.287 172.22C245.257 172.132 245.267 172.036 245.316 171.954C245.365 171.873 245.448 171.812 245.548 171.785C245.648 171.758 245.755 171.767 245.847 171.811C245.877 171.825 248.936 173.234 255.088 173.398C261.42 173.571 265.678 171.264 265.72 171.241C265.809 171.193 265.915 171.178 266.015 171.2C266.116 171.221 266.203 171.277 266.257 171.355C266.312 171.433 266.329 171.527 266.306 171.617C266.283 171.707 266.221 171.784 266.134 171.834C265.96 171.93 261.949 174.105 255.769 174.105Z" fill="#1AA9E8"/>
<path d="M269.555 117.445C270.535 117.489 273.537 116.797 275.781 116.355C280.211 115.483 284.564 115.535 285.685 118.274C286.649 120.629 285.045 122.584 285.31 124.234C285.669 126.473 293.187 128.362 293.333 132.84C293.474 137.133 289.509 138.684 288.43 140.559C287.352 142.434 285.204 148.125 277.742 147.668C273.478 147.406 272.301 145.167 272.3 143.612C272.3 141.615 274.458 140.079 273.428 138.64C272.398 137.201 269.098 138.154 268.378 136.46C267.594 134.613 269.359 133.102 270.682 132.186C272.006 131.27 273.967 130.31 273.526 128.959C273.085 127.607 270.388 127.266 270.486 125.906C270.601 124.321 273.872 123.145 273.33 121.545C272.922 120.338 270.584 120.585 268.574 120.236C266.564 119.887 269.555 117.445 269.555 117.445Z" fill="url(#paint42_linear_5_137)"/>
<path d="M262.332 128.682C262.078 130.703 263.312 136.59 263.312 136.59C263.312 136.59 260.239 139.425 255.729 139.614C253.516 139.707 253.114 138.742 253.114 138.742L254.03 130.659C254.03 130.659 255.408 128.359 258.213 127.403C261.018 126.447 262.07 127.345 262.07 127.345L262.332 128.682Z" fill="url(#paint43_linear_5_137)"/>
<path d="M261.09 114.029C257.102 112.517 254.131 112.583 254.131 112.583C251.022 114.087 242.757 127.838 247.95 131.182C251.156 133.247 256.654 131.141 260.308 128.334C260.538 128.398 260.777 128.431 261.018 128.431C262.291 128.431 263.322 127.542 263.322 126.446C263.322 126.133 263.236 125.838 263.086 125.575C263.423 125.103 263.682 124.641 263.835 124.204C264.735 121.633 265.077 115.541 261.09 114.029Z" fill="url(#paint44_linear_5_137)"/>
<path d="M254.895 122.352C254.803 122.352 254.712 122.332 254.629 122.295C254.547 122.258 254.476 122.204 254.421 122.138C254.366 122.071 254.33 121.994 254.315 121.913C254.3 121.832 254.306 121.749 254.334 121.671C254.515 121.161 255.174 120.212 255.593 119.857C255.649 119.81 255.715 119.773 255.787 119.748C255.859 119.723 255.936 119.711 256.013 119.713C256.09 119.715 256.166 119.73 256.237 119.758C256.308 119.786 256.371 119.826 256.425 119.876C256.478 119.925 256.52 119.984 256.548 120.048C256.575 120.112 256.589 120.181 256.587 120.249C256.585 120.318 256.568 120.386 256.536 120.449C256.505 120.511 256.46 120.568 256.404 120.616C256.133 120.845 255.575 121.652 255.456 121.986C255.419 122.092 255.344 122.184 255.243 122.25C255.142 122.316 255.021 122.352 254.895 122.352ZM249.331 119.589C249.254 119.589 249.178 119.573 249.11 119.542C249.041 119.511 248.981 119.466 248.936 119.411C248.89 119.356 248.86 119.292 248.848 119.224C248.835 119.156 248.841 119.087 248.864 119.022C249.038 118.53 249.569 117.768 249.977 117.423C250.071 117.343 250.197 117.3 250.327 117.303C250.457 117.306 250.58 117.355 250.67 117.438C250.759 117.522 250.808 117.634 250.805 117.75C250.801 117.866 250.747 117.975 250.652 118.055C250.368 118.295 249.922 118.939 249.799 119.284C249.768 119.373 249.706 119.45 249.621 119.505C249.537 119.56 249.436 119.589 249.331 119.589Z" fill="#0090B2"/>
<path d="M254.928 124.414C254.532 124.417 254.141 124.331 253.792 124.166C253.068 123.822 252.593 123.168 252.455 122.324C252.322 121.509 252.52 120.609 253.012 119.79C253.78 118.512 255.11 117.687 256.4 117.687C256.808 117.687 257.191 117.771 257.536 117.935C258.998 118.631 259.348 120.594 258.316 122.312C257.549 123.588 256.219 124.414 254.928 124.414ZM256.4 118.21C255.34 118.21 254.187 118.944 253.531 120.036C253.097 120.758 252.922 121.543 253.037 122.248C253.148 122.923 253.514 123.44 254.069 123.704C254.333 123.828 254.629 123.892 254.928 123.89C255.988 123.89 257.141 123.156 257.797 122.064C258.676 120.601 258.434 118.956 257.259 118.396C256.994 118.272 256.699 118.208 256.4 118.21ZM248.35 121.121C248.069 121.124 247.792 121.064 247.544 120.947C246.368 120.388 246.193 118.709 247.144 117.126C247.864 115.928 249.064 115.124 250.131 115.124C250.423 115.124 250.694 115.183 250.938 115.299C251.521 115.576 251.876 116.14 251.936 116.888C251.993 117.591 251.78 118.384 251.338 119.119C250.619 120.317 249.418 121.121 248.35 121.121ZM250.131 115.647C249.289 115.647 248.274 116.357 247.663 117.372C246.894 118.653 246.966 120.078 247.821 120.485C247.984 120.561 248.166 120.6 248.35 120.598C249.194 120.598 250.209 119.888 250.819 118.872C251.21 118.223 251.398 117.531 251.349 116.925C251.304 116.363 251.06 115.949 250.661 115.76C250.498 115.684 250.316 115.645 250.131 115.647Z" fill="#9F36AD"/>
<path d="M251.905 118.506C250.361 119.647 246.073 121.53 245.956 122.198C245.801 123.093 248.098 123.591 248.621 123.591C249.145 123.591 249.527 122.329 250.925 120.599C251.713 119.625 252.727 117.899 251.905 118.506Z" fill="url(#paint45_linear_5_137)"/>
<path d="M253.467 119.878C253.408 119.878 253.35 119.862 253.302 119.833C253.253 119.803 253.215 119.762 253.194 119.713C252.79 118.816 252.273 118.548 251.406 118.788C251.332 118.806 251.253 118.799 251.185 118.766C251.118 118.734 251.067 118.679 251.045 118.614C251.022 118.548 251.028 118.478 251.063 118.417C251.098 118.356 251.159 118.31 251.231 118.288C252.402 117.964 253.221 118.367 253.74 119.519C253.758 119.559 253.764 119.602 253.759 119.644C253.754 119.687 253.737 119.727 253.71 119.763C253.683 119.798 253.647 119.827 253.604 119.847C253.562 119.867 253.515 119.878 253.467 119.878Z" fill="#9F36AD"/>
<path d="M246.67 125.563C246.725 125.768 246.868 125.98 247.032 126.154C247.199 126.33 247.402 126.473 247.626 126.562C248.075 126.748 248.598 126.677 249.063 126.474C249.097 126.459 249.135 126.45 249.174 126.447C249.212 126.445 249.251 126.45 249.287 126.461C249.324 126.472 249.358 126.489 249.387 126.512C249.416 126.534 249.44 126.562 249.457 126.593C249.474 126.623 249.484 126.657 249.487 126.691C249.49 126.725 249.485 126.76 249.472 126.792C249.46 126.825 249.44 126.855 249.415 126.881C249.389 126.907 249.359 126.928 249.324 126.943C249.318 126.946 249.311 126.949 249.305 126.951C249.014 127.057 248.7 127.138 248.37 127.145C248.037 127.158 247.706 127.094 247.409 126.958C247.123 126.823 246.874 126.633 246.681 126.402C246.494 126.175 246.341 125.931 246.278 125.634C246.271 125.589 246.283 125.544 246.312 125.507C246.341 125.47 246.385 125.444 246.434 125.434C246.484 125.425 246.536 125.432 246.579 125.455C246.623 125.478 246.655 125.515 246.67 125.558L246.67 125.563Z" fill="#954374"/>
<path d="M255.44 139.969C253.233 139.969 252.766 138.91 252.747 138.863C252.727 138.82 252.718 138.774 252.719 138.727C252.72 138.68 252.731 138.634 252.753 138.592C252.774 138.549 252.804 138.511 252.843 138.479C252.881 138.447 252.926 138.422 252.975 138.406C253.024 138.39 253.076 138.383 253.129 138.385C253.181 138.387 253.232 138.398 253.279 138.418C253.327 138.438 253.369 138.467 253.404 138.501C253.439 138.536 253.465 138.577 253.482 138.621C253.493 138.643 253.857 139.343 255.711 139.266C260.016 139.085 263 136.376 263.03 136.348C263.066 136.315 263.109 136.289 263.156 136.271C263.203 136.252 263.254 136.243 263.305 136.242C263.357 136.241 263.408 136.249 263.456 136.266C263.504 136.283 263.548 136.308 263.585 136.34C263.622 136.371 263.651 136.409 263.672 136.451C263.693 136.493 263.704 136.539 263.704 136.584C263.705 136.63 263.696 136.676 263.677 136.718C263.658 136.761 263.63 136.8 263.595 136.833C263.465 136.953 260.361 139.769 255.747 139.963C255.641 139.967 255.539 139.969 255.44 139.969Z" fill="#1AA9E8"/>
<path d="M260.391 124.538C259.975 124.629 259.379 124.466 259.423 123.711C259.504 122.286 262.253 120.102 262.185 118.085C262.103 115.635 256.93 115.09 253.376 113.854C249.548 112.524 249.6 108.591 250.556 107.305C251.611 105.888 253.474 106.353 254.258 107.051C255.043 107.749 255.402 108.524 256.089 108.505C256.881 108.483 256.587 107.109 257.788 107.109C259.005 107.109 260.058 109.105 260.894 109.929C262.323 111.34 269.827 113.54 270.208 118.332C270.732 124.902 263.378 130.019 262.561 130.019C261.169 130.02 261.242 128.587 261.837 128.3C262.432 128.013 263.553 127.408 263.269 126.024C262.985 124.641 261.318 124.336 260.391 124.538Z" fill="url(#paint46_linear_5_137)"/>
<path d="M261.849 124.597C262.505 124.816 263.016 125.284 263.223 125.868C263.249 125.837 263.266 125.801 263.274 125.763C263.282 125.725 263.281 125.685 263.269 125.648C262.798 124.148 260.341 122.816 259.022 122.1C258.743 121.949 258.503 121.819 258.361 121.729C258.297 121.691 258.219 121.677 258.144 121.689C258.068 121.701 258.001 121.74 257.957 121.796C257.912 121.851 257.894 121.92 257.906 121.988C257.919 122.055 257.96 122.116 258.022 122.157C258.179 122.256 258.416 122.384 258.716 122.547C259.575 123.013 260.944 123.756 261.849 124.597Z" fill="#9F36AD"/>
<path d="M215.574 141.182C216.367 141.044 217.266 143.35 217.659 144.659C218.051 145.967 218.335 148.182 219.775 149.645C221.091 150.982 225.299 152.203 225.299 152.203C225.299 152.203 225.757 154.384 224.645 155.605C223.534 156.826 221.894 156.764 221.894 156.764C221.894 156.764 217.063 152.494 215.036 151.244C213.009 149.994 211.768 148.307 211.457 147.101C211.124 145.81 210.885 145.167 211.048 143.743C211.136 142.97 211.478 141.943 211.478 141.943C211.478 141.943 214.487 146.19 215.265 147.29C216.082 147.144 215.69 145.138 215.592 144.324C215.494 143.51 214.766 141.322 215.574 141.182Z" fill="url(#paint47_linear_5_137)"/>
<path d="M258.083 142.265C261.514 141.736 263.529 143.111 264.603 145.182C265.78 147.449 265.534 150.255 263.704 151.883C261.874 153.511 250.088 165.97 243.88 165.811C236.951 165.635 221.63 157.855 221.475 157.058C221.32 156.261 224.18 151.849 224.581 151.978C224.981 152.106 240.824 157.43 243.178 156.866C245.531 156.303 255.698 142.633 258.083 142.265Z" fill="url(#paint48_linear_5_137)"/>
<path d="M221.471 157.4C221.38 157.401 221.291 157.373 221.221 157.322C221.151 157.27 221.104 157.198 221.089 157.118C220.908 156.192 223.447 152.316 224.177 151.771C224.359 151.634 224.539 151.594 224.714 151.65C224.794 151.675 224.863 151.724 224.91 151.788C224.956 151.851 224.978 151.927 224.972 152.003C224.966 152.079 224.932 152.151 224.876 152.208C224.819 152.265 224.743 152.305 224.659 152.32C224.054 152.772 221.775 156.392 221.862 157C221.889 157.188 221.743 157.368 221.532 157.396C221.512 157.399 221.492 157.4 221.471 157.4Z" fill="#1AA9E8"/>
<path d="M109.272 219.655C109.272 219.783 109.301 219.91 109.356 220.029C109.411 220.148 109.492 220.256 109.595 220.346C109.697 220.437 109.818 220.509 109.952 220.558C110.085 220.608 110.228 220.633 110.373 220.633H134.755C134.899 220.633 135.043 220.608 135.176 220.558C135.309 220.509 135.431 220.437 135.533 220.346C135.635 220.256 135.716 220.148 135.771 220.029C135.827 219.91 135.855 219.783 135.855 219.655V205.304C135.855 205.175 135.827 205.048 135.771 204.929C135.716 204.811 135.635 204.703 135.533 204.612C135.431 204.521 135.309 204.449 135.176 204.4C135.043 204.351 134.899 204.325 134.755 204.325H110.373C110.228 204.325 110.085 204.351 109.952 204.4C109.818 204.449 109.697 204.521 109.595 204.612C109.492 204.703 109.411 204.811 109.356 204.929C109.301 205.048 109.272 205.175 109.272 205.304V219.655Z" fill="url(#paint49_linear_5_137)"/>
<path d="M135.605 203.757H109.522C109.21 203.757 108.911 203.867 108.69 204.064C108.469 204.26 108.345 204.526 108.345 204.804V220.155C108.345 220.432 108.469 220.699 108.69 220.895C108.911 221.091 109.21 221.202 109.522 221.202H135.605C135.917 221.202 136.216 221.091 136.437 220.895C136.658 220.699 136.782 220.432 136.782 220.155V204.804C136.782 204.526 136.658 204.26 136.437 204.064C136.216 203.867 135.917 203.757 135.605 203.757ZM134.82 219.457H110.307V205.502H134.82V219.457Z" fill="url(#paint50_linear_5_137)"/>
<path d="M109.504 213.55H130.259V215.294H109.504V213.55Z" fill="#FDE1A7"/>
<path d="M127.565 209.428L130.259 212.229L124.887 212.241L127.565 209.428Z" fill="#00E2EC"/>
<path d="M120.412 212.241C121.286 212.241 121.994 211.612 121.994 210.835C121.994 210.058 121.286 209.428 120.412 209.428C119.539 209.428 118.831 210.058 118.831 210.835C118.831 211.612 119.539 212.241 120.412 212.241Z" fill="#F95FC3"/>
<path d="M86.3182 272.007C87.0411 273.617 90.1334 274.291 92.728 274.838C95.5241 275.427 97.5158 275.766 97.4021 276.756C97.2715 277.89 91.192 278.268 86.7795 278.152C82.367 278.036 79.1704 277.573 78.5169 277.137C77.8266 276.677 77.8568 272.512 78.02 271.581C78.1832 270.651 86.3182 272.007 86.3182 272.007Z" fill="url(#paint51_linear_5_137)"/>
<path d="M81.7133 177.469C81.1249 179.387 79.6215 183.807 79.0983 192.18C78.5751 200.554 79.2289 226.255 79.2289 232.535C79.2289 238.815 77.5294 249.979 77.3984 257.539C77.2674 265.098 77.0992 272.206 77.5945 272.483C78.6896 273.093 84.9652 273.529 87.0734 272.483C87.4413 272.3 90.865 245.909 93.2183 234.861C94.7707 227.572 100.801 187.993 101.193 182.178C101.586 176.364 81.7133 177.469 81.7133 177.469Z" fill="url(#paint52_linear_5_137)"/>
<path d="M83.0809 270.714C80.1714 270.714 77.9232 270.197 77.1018 269.829C77.0547 269.809 77.0125 269.78 76.9778 269.746C76.9431 269.711 76.9165 269.67 76.8996 269.626C76.8827 269.582 76.8759 269.536 76.8795 269.49C76.8831 269.443 76.8971 269.398 76.9206 269.356C76.9442 269.315 76.9768 269.278 77.0166 269.248C77.0563 269.218 77.1025 269.195 77.1523 269.181C77.2021 269.167 77.2545 269.162 77.3066 269.166C77.3586 269.17 77.4091 269.184 77.4552 269.206C78.5935 269.717 82.6989 270.525 87.4836 269.6C87.5853 269.58 87.6915 269.598 87.779 269.648C87.8665 269.698 87.9281 269.777 87.9501 269.867C87.9722 269.958 87.9529 270.052 87.8966 270.13C87.8403 270.208 87.7516 270.262 87.6499 270.282C86.1485 270.57 84.6168 270.715 83.0809 270.714Z" fill="#CD218F"/>
<path d="M118.157 274.024C118.778 275.012 121.543 276.239 124.138 276.786C126.934 277.375 128.926 277.714 128.812 278.705C128.682 279.839 122.602 280.216 118.19 280.1C113.777 279.984 110.803 279.839 110.149 279.402C109.459 278.942 109.103 275.652 109.267 274.721C109.43 273.791 118.157 274.024 118.157 274.024Z" fill="url(#paint53_linear_5_137)"/>
<path d="M112.862 181.597C113.156 185.086 115.804 227.389 116.392 234.366C116.98 241.344 119.562 273.554 119.236 274.169C118.696 275.186 110.362 276.32 109.087 275.317C108.271 274.676 105.638 258.353 103.547 247.653C101.455 236.954 96.8789 217.998 94.5256 210.555C92.1722 203.112 87.8578 190.93 90.3092 180.114C92.5645 177.846 97.5673 177.897 103.056 178.806C108.708 179.741 112.862 181.597 112.862 181.597Z" fill="url(#paint54_linear_5_137)"/>
<path d="M96.3325 217.593C95.8805 215.952 95.4094 214.316 94.9193 212.684C94.4322 211.052 93.8795 209.438 93.3473 207.813C92.2769 204.566 91.2705 201.293 90.5037 197.964C90.4938 197.919 90.4939 197.873 90.5041 197.828C90.5143 197.783 90.5343 197.741 90.563 197.703C90.5918 197.665 90.6287 197.632 90.6716 197.607C90.7145 197.581 90.7626 197.564 90.8131 197.555C90.8637 197.546 90.9157 197.546 90.9662 197.555C91.0167 197.564 91.0647 197.582 91.1075 197.608C91.1502 197.633 91.1869 197.666 91.2154 197.704C91.2439 197.742 91.2637 197.785 91.2736 197.83C91.9678 201.141 92.9045 204.413 93.9089 207.671C94.4075 209.301 94.9307 210.931 95.3872 212.575C95.8457 214.218 96.285 215.864 96.7051 217.515C96.7168 217.559 96.7084 217.605 96.6817 217.643C96.6551 217.682 96.6123 217.709 96.5629 217.72C96.5135 217.73 96.4615 217.723 96.4183 217.699C96.375 217.675 96.3442 217.637 96.3325 217.593Z" fill="#CD218F"/>
<path d="M90.8841 198.224C90.8317 198.224 90.7798 198.215 90.7316 198.196C89.5843 197.766 86.9839 196.098 86.345 195.151C86.3185 195.111 86.3009 195.068 86.2933 195.023C86.2858 194.977 86.2883 194.931 86.3008 194.887C86.326 194.797 86.3903 194.72 86.4795 194.672C86.5687 194.624 86.6755 194.61 86.7764 194.633C86.8773 194.655 86.9641 194.712 87.0176 194.792C87.5314 195.553 89.9228 197.136 91.0371 197.554C91.1202 197.586 91.1886 197.642 91.2306 197.713C91.2726 197.784 91.2858 197.866 91.2678 197.945C91.2498 198.023 91.2018 198.094 91.1319 198.145C91.062 198.196 90.9745 198.224 90.8841 198.224ZM111.441 273.277C109.901 273.277 108.656 273.128 108.123 272.951C108.074 272.935 108.03 272.91 107.993 272.879C107.955 272.848 107.925 272.81 107.903 272.769C107.882 272.727 107.87 272.682 107.868 272.636C107.866 272.59 107.875 272.545 107.893 272.502C107.911 272.459 107.938 272.42 107.973 272.386C108.009 272.353 108.051 272.326 108.098 272.307C108.145 272.288 108.195 272.277 108.247 272.275C108.298 272.274 108.349 272.281 108.398 272.297C109.654 272.715 115.566 272.939 118.963 271.047C119.007 271.023 119.056 271.007 119.106 270.999C119.157 270.991 119.209 270.993 119.259 271.003C119.31 271.013 119.357 271.032 119.399 271.059C119.441 271.085 119.476 271.119 119.504 271.158C119.531 271.197 119.55 271.24 119.558 271.285C119.567 271.33 119.565 271.377 119.554 271.421C119.542 271.466 119.521 271.508 119.491 271.545C119.461 271.583 119.423 271.614 119.379 271.639C117.122 272.896 113.905 273.277 111.441 273.277Z" fill="#CD218F"/>
<path d="M98.4313 120.213C100.785 116.026 110.28 97.9219 111.26 96.8169C112.241 95.712 113.011 95.495 113.287 93.8224C113.517 92.4338 113.393 91.4747 113.679 90.3918C114.072 88.909 116.437 84.9498 115.837 83.7919C115.444 83.0358 113.875 85.0423 113.287 85.6818C112.699 86.3213 110.951 88.8193 110.534 88.588C110.423 87.6153 110.567 84.3445 110.567 84.3445C109.823 85.1295 108.793 87.1356 108.205 89.2289C107.616 91.3223 107.796 92.049 106.489 94.4333C105.181 96.8176 94.4279 107.284 88.9368 118.187C88.6161 118.825 88.3069 119.467 88.0092 120.114C90.3299 121.562 93.4316 123.022 97.1679 123.602C97.559 122.193 97.9853 121.006 98.4313 120.213Z" fill="url(#paint55_linear_5_137)"/>
<path d="M102.337 141.562C95.3696 139.822 96.056 140.764 95.2955 140.462C94.4613 139.719 95.4936 129.628 97.1676 123.602C93.4313 123.022 90.33 121.562 88.0088 120.114C83.0825 130.792 80.2961 144.396 80.1114 155.081C79.9153 166.42 80.4056 177.759 80.5036 178.283C80.6017 178.806 89.5208 183.69 99.4284 183.778C109.299 183.865 112.862 181.597 112.862 181.597C112.862 181.597 114.84 150.512 114.521 149.642C114.202 148.772 109.305 143.302 102.337 141.562Z" fill="url(#paint56_linear_5_137)"/>
<path d="M100.818 181.664C100.514 181.664 100.206 181.661 99.8896 181.657C88.1825 181.477 80.9217 176.884 80.073 176.047C80.0033 175.978 79.9671 175.888 79.9724 175.796C79.9778 175.703 80.0242 175.616 80.1014 175.554C80.1786 175.492 80.2804 175.46 80.3843 175.465C80.4882 175.47 80.5857 175.511 80.6554 175.58C81.3418 176.257 88.5018 180.784 99.9029 180.959C109.525 181.107 112.74 178.89 112.771 178.867C112.811 178.839 112.857 178.817 112.907 178.804C112.956 178.792 113.008 178.787 113.059 178.792C113.11 178.797 113.16 178.811 113.205 178.833C113.25 178.855 113.29 178.885 113.322 178.921C113.355 178.957 113.379 178.998 113.393 179.042C113.408 179.086 113.412 179.132 113.406 179.177C113.401 179.223 113.385 179.267 113.36 179.307C113.336 179.347 113.302 179.383 113.262 179.411C113.129 179.507 109.996 181.664 100.818 181.664ZM108.277 148.426C108.205 148.426 108.135 148.408 108.074 148.376C108.012 148.343 107.963 148.295 107.929 148.239C106.703 146.162 102.513 143.262 100.631 142.611C100.536 142.576 100.46 142.51 100.419 142.426C100.379 142.342 100.377 142.247 100.414 142.162C100.451 142.077 100.524 142.008 100.618 141.97C100.712 141.933 100.818 141.929 100.915 141.961C102.948 142.664 107.301 145.675 108.624 147.914C108.655 147.968 108.67 148.027 108.668 148.087C108.666 148.147 108.647 148.206 108.612 148.257C108.577 148.308 108.528 148.351 108.469 148.38C108.411 148.41 108.344 148.426 108.277 148.426ZM88.7956 137.826C88.7033 137.826 88.614 137.797 88.5434 137.744C88.4728 137.691 88.4254 137.617 88.4096 137.536C87.6079 133.439 90.1754 126.866 91.4094 123.708C91.6761 123.025 91.8871 122.486 91.9702 122.207C91.9834 122.163 92.0063 122.121 92.0375 122.085C92.0688 122.048 92.1078 122.018 92.1524 121.995C92.1969 121.972 92.2461 121.957 92.2972 121.951C92.3483 121.945 92.4002 121.948 92.4499 121.96C92.4997 121.971 92.5464 121.992 92.5874 122.019C92.6283 122.047 92.6627 122.082 92.6885 122.122C92.7144 122.161 92.7312 122.205 92.7379 122.25C92.7447 122.296 92.7413 122.342 92.728 122.386C92.6374 122.691 92.4331 123.214 92.1499 123.937C90.9375 127.04 88.4151 133.497 89.1819 137.417C89.1917 137.467 89.1891 137.519 89.1741 137.568C89.1592 137.617 89.1324 137.662 89.0956 137.701C89.0588 137.74 89.0129 137.772 88.9611 137.793C88.9093 137.815 88.8528 137.826 88.7956 137.826Z" fill="#05C5DA"/>
<path d="M84.034 139.294C83.9542 139.294 83.8764 139.273 83.8108 139.232C83.7452 139.192 83.695 139.135 83.667 139.068C83.6389 139.002 83.6342 138.929 83.6536 138.86C83.673 138.792 83.7155 138.73 83.7755 138.683C84.5611 138.072 88.7972 135.999 93.6976 137.839C93.7934 137.875 93.8693 137.943 93.9085 138.029C93.9477 138.115 93.947 138.211 93.9066 138.296C93.8662 138.381 93.7894 138.449 93.693 138.484C93.5967 138.519 93.4887 138.518 93.3928 138.482C88.8403 136.773 84.8828 138.748 84.2921 139.208C84.2176 139.266 84.1254 139.294 84.034 139.294Z" fill="#05C5DA"/>
<path d="M105.651 117.271C107.145 119.471 110.116 119.887 110.362 120.629C110.607 121.37 108.989 122.853 108.498 123.114C108.008 123.376 105.655 119.102 105.459 118.622C105.263 118.143 105.651 117.271 105.651 117.271Z" fill="url(#paint57_linear_5_137)"/>
<path d="M101.512 112.67C101.512 112.67 94.7217 114.436 91.3878 118.565C89.5471 120.844 91.8322 124.86 94.2479 128C93.4387 128.615 93.0222 129.322 93.0222 129.322L92.7115 130.092C92.5319 131.851 90.3798 137.908 89.5953 139.711C89.3035 140.381 91.347 142.847 95.8003 143.045C99.7225 143.219 102.337 141.562 102.337 141.562L102.713 133.908C102.713 133.908 102.845 133.429 102.987 132.777C104.884 132.562 107.041 131.901 108.842 130.252C113.352 126.124 104.037 114.48 101.512 112.67Z" fill="url(#paint58_linear_5_137)"/>
<path d="M100.148 123.274C100.645 122.975 100.507 122.053 99.3307 121.007C98.154 119.96 96.9118 119.029 97.1409 117.925C97.368 116.829 101.424 115.661 103.329 114.405C106.456 112.343 107.469 107.342 105.574 107.022C102.973 106.584 102.143 109.755 101.455 109.755C100.638 109.755 101.056 108.06 99.8845 108.182C98.1866 108.359 97.5327 110.511 96.5526 111.179C95.0833 112.181 87.2698 114.319 86.7796 119.495C86.3803 123.707 89.3467 126.103 90.6528 127.606C92.042 129.205 92.4707 130.027 92.7119 130.092C93.1449 130.208 95.0515 129.955 96.6832 129.351C98.4482 128.696 99.5268 127.868 99.1836 127.475C98.8404 127.083 96.2745 126.645 96.0948 124.728C95.9642 123.332 97.0264 122.722 97.8598 122.853C98.6933 122.983 99.5919 123.609 100.148 123.274Z" fill="url(#paint59_linear_5_137)"/>
<path d="M101.34 124.685C101.648 124.693 101.88 126.545 103.081 126.8C103.881 126.969 106.456 125.382 107.616 124.925C108.321 124.646 109.578 124.456 109.659 124.743C109.739 125.03 109.921 126.08 110.362 127.018C110.735 127.81 111.588 128.537 111.171 130.158C110.559 132.538 105.9 134.323 102.714 133.908C102.64 133.232 102.534 132.184 102.002 130.289C101.389 128.101 100.435 126.109 100.458 125.71C100.491 125.135 100.818 124.67 101.34 124.685Z" fill="url(#paint60_linear_5_137)"/>
<path d="M104.756 120.774C104.627 120.774 104.502 120.736 104.4 120.667C104.298 120.598 104.224 120.501 104.19 120.391C104.055 119.958 103.438 119.006 103.314 118.859C103.221 118.749 103.179 118.611 103.199 118.474C103.219 118.337 103.298 118.212 103.42 118.127C103.54 118.042 103.694 118.003 103.846 118.018C103.999 118.033 104.139 118.102 104.235 118.208C104.393 118.384 105.133 119.501 105.323 120.111C105.348 120.189 105.351 120.27 105.334 120.35C105.317 120.429 105.28 120.504 105.225 120.568C105.17 120.632 105.099 120.684 105.017 120.72C104.936 120.756 104.847 120.774 104.756 120.774Z" fill="#0090B2"/>
<path d="M107.824 126.472C107.894 126.576 108.107 126.703 108.297 126.771C108.496 126.843 108.71 126.878 108.915 126.858C109.332 126.825 109.683 126.524 109.899 126.15C109.918 126.117 109.949 126.093 109.988 126.081C110.026 126.069 110.069 126.071 110.106 126.086C110.142 126.101 110.171 126.129 110.186 126.163C110.2 126.197 110.199 126.234 110.183 126.267C110.08 126.484 109.944 126.699 109.745 126.88C109.542 127.069 109.279 127.199 108.99 127.253C108.699 127.307 108.399 127.282 108.125 127.207C107.849 127.121 107.594 127.033 107.352 126.783L107.347 126.779C107.32 126.751 107.299 126.719 107.287 126.684C107.274 126.649 107.27 126.612 107.274 126.576C107.279 126.539 107.292 126.504 107.313 126.472C107.334 126.44 107.362 126.413 107.395 126.391C107.429 126.37 107.467 126.354 107.507 126.347C107.548 126.339 107.59 126.339 107.63 126.347C107.67 126.355 107.709 126.37 107.742 126.391C107.776 126.413 107.804 126.44 107.824 126.472Z" fill="#F1D2F8"/>
<path d="M95.8003 143.045C99.7225 143.219 102.337 141.562 102.337 141.562L102.474 138.773C101.487 139.246 99.355 140.058 96.5463 139.933C93.1371 139.782 91.1454 138.303 90.5272 137.316C90.157 138.329 89.82 139.194 89.5957 139.71C89.3039 140.381 91.347 142.847 95.8003 143.045Z" fill="url(#paint61_linear_5_137)"/>
<path d="M96.3851 143.406C96.187 143.406 95.9858 143.402 95.7807 143.393C92.4896 143.247 90.3657 141.884 89.5467 140.762C89.2114 140.303 89.0988 139.884 89.2294 139.584C89.2681 139.499 89.3425 139.432 89.4367 139.395C89.5309 139.359 89.6373 139.357 89.7331 139.39C89.829 139.423 89.9066 139.487 89.9493 139.57C89.992 139.653 89.9965 139.748 89.9617 139.834C89.9503 139.877 89.975 140.111 90.3033 140.509C91.1074 141.483 92.9791 142.57 95.8195 142.696C99.5625 142.859 102.084 141.293 102.11 141.277C102.152 141.251 102.199 141.232 102.249 141.221C102.299 141.211 102.351 141.21 102.402 141.217C102.453 141.225 102.502 141.241 102.545 141.266C102.589 141.29 102.627 141.322 102.657 141.359C102.687 141.396 102.708 141.438 102.72 141.483C102.731 141.528 102.733 141.574 102.724 141.619C102.716 141.664 102.697 141.708 102.67 141.746C102.643 141.785 102.607 141.819 102.565 141.846C102.459 141.913 100.058 143.406 96.3851 143.406Z" fill="#05C5DA"/>
<path d="M121.957 198.627C120.845 195.602 119.674 175.954 117.688 162.289C112.177 162.419 107.693 163.647 105.316 164.658C105.875 166.958 106.681 169.966 107.96 173.921C111.457 184.745 116.147 197.079 116.229 199.739C116.277 201.308 114.775 203.151 114.584 205.468C114.456 207.022 115.166 209.552 115.837 209.508C116.686 209.453 116.615 207.151 116.956 206.063C117.495 204.34 118.648 203.751 118.648 203.751C118.648 203.751 121.099 203.757 125.232 203.757C124.652 201.903 122.441 199.946 121.957 198.627Z" fill="url(#paint62_linear_5_137)"/>
<path d="M114.202 149.266C110.28 145.545 102.762 149.441 102.043 154.325C101.889 155.37 102.958 156.593 103.743 158.396C104.208 159.464 104.5 161.308 105.315 164.658C107.693 163.647 112.176 162.419 117.688 162.289C116.739 155.761 115.605 150.597 114.202 149.266Z" fill="url(#paint63_linear_5_137)"/>
<path d="M105.316 165.007C105.227 165.007 105.14 164.98 105.071 164.931C105.001 164.882 104.953 164.813 104.933 164.736C104.913 164.659 104.924 164.578 104.962 164.507C105.001 164.435 105.066 164.378 105.146 164.344C106.377 163.82 110.919 162.1 117.678 161.94C117.895 161.941 118.075 162.087 118.08 162.28C118.083 162.373 118.044 162.462 117.973 162.529C117.901 162.596 117.802 162.636 117.698 162.638C112.451 162.762 107.949 163.925 105.485 164.973C105.432 164.996 105.374 165.007 105.316 165.007ZM102.044 154.674C101.988 154.674 101.933 154.664 101.882 154.643C101.831 154.623 101.785 154.593 101.749 154.556C101.712 154.518 101.684 154.474 101.668 154.427C101.652 154.379 101.647 154.329 101.654 154.28C102.071 151.452 104.771 148.712 108.075 147.766C110.556 147.055 112.894 147.515 114.488 149.028C114.555 149.096 114.59 149.185 114.585 149.275C114.58 149.366 114.535 149.451 114.461 149.513C114.387 149.574 114.289 149.608 114.187 149.607C114.086 149.606 113.988 149.57 113.916 149.506C112.029 147.715 109.597 148.063 108.316 148.431C105.285 149.298 102.811 151.797 102.432 154.371C102.42 154.455 102.374 154.532 102.302 154.588C102.231 154.643 102.139 154.674 102.044 154.674Z" fill="#05C5DA"/>
<path d="M232.533 114.43L228.405 114.11L232.229 110.754L232.533 114.43Z" fill="#F95FC3"/>
<path d="M217.945 125.659C217.863 125.659 217.782 125.635 217.715 125.592C217.648 125.549 217.598 125.488 217.573 125.418C215.56 119.948 219.534 116.557 226.117 110.94C227.477 109.78 229.018 108.466 230.61 107.038C239.984 98.633 238.154 90.0981 237.369 87.6824C237.341 87.5935 237.353 87.498 237.403 87.417C237.453 87.336 237.538 87.2761 237.638 87.2505C237.738 87.2248 237.845 87.2356 237.936 87.2803C238.027 87.3251 238.094 87.4002 238.123 87.4891C238.937 89.9969 240.842 98.8545 231.167 107.529C229.568 108.963 228.023 110.281 226.661 111.443C220.299 116.871 216.459 120.147 218.318 125.201C218.337 125.253 218.343 125.309 218.333 125.364C218.324 125.418 218.3 125.47 218.263 125.515C218.227 125.559 218.179 125.596 218.124 125.621C218.069 125.646 218.007 125.659 217.945 125.659Z" fill="#1AA9E8"/>
<path d="M236.561 109.334L235.169 108.105C238.731 104.911 241.017 101.354 241.966 97.5325L243.881 97.9086C242.851 102.058 240.389 105.902 236.561 109.334Z" fill="#00E2EC"/>
<path d="M237.747 88.9671C238.604 88.9671 239.299 88.3489 239.299 87.5862C239.299 86.8236 238.604 86.2053 237.747 86.2053C236.889 86.2053 236.194 86.8236 236.194 87.5862C236.194 88.3489 236.889 88.9671 237.747 88.9671Z" fill="#FDE1A7"/>
<path d="M214.414 127.054C214.351 127.054 214.289 127.04 214.233 127.014C214.118 126.96 211.423 125.652 212.066 121.655C212.429 119.39 214.089 117.485 215.846 115.468C218.131 112.845 220.494 110.133 220.169 106.38C220.043 104.926 219.204 103.648 217.675 102.582C209.487 96.8689 184.205 98.4071 177.781 99.3516C177.731 99.3591 177.679 99.3576 177.628 99.3473C177.578 99.3369 177.531 99.3178 177.489 99.2911C177.447 99.2644 177.412 99.2306 177.384 99.1916C177.357 99.1527 177.339 99.1093 177.331 99.0641C177.314 98.9728 177.338 98.8793 177.399 98.804C177.459 98.7288 177.551 98.678 177.654 98.6629C184.152 97.7076 209.764 96.1756 218.159 102.033C219.868 103.225 220.808 104.67 220.951 106.327C221.299 110.348 218.731 113.295 216.466 115.895C214.774 117.837 213.176 119.672 212.843 121.754C212.282 125.241 214.505 126.352 214.599 126.397C214.789 126.489 214.862 126.7 214.76 126.869C214.727 126.925 214.677 126.972 214.616 127.004C214.555 127.037 214.485 127.054 214.414 127.054Z" fill="#1AA9E8"/>
<path d="M207.58 103.427C203.829 102.879 199.354 102.597 194.279 102.591L194.283 100.847C199.463 100.853 204.043 101.142 207.898 101.706L207.58 103.427Z" fill="#C7A0F6"/>
<path d="M177.717 100.388C178.574 100.388 179.27 99.77 179.27 99.0074C179.27 98.2447 178.574 97.6265 177.717 97.6265C176.86 97.6265 176.165 98.2447 176.165 99.0074C176.165 99.77 176.86 100.388 177.717 100.388Z" fill="#FDE1A7"/>
<path d="M65.3827 131.171L63.9628 134.634L61.3126 130.479L65.3827 131.171Z" fill="#F95FC3"/>
<path d="M106.016 160.119C105.706 160.119 105.397 160.117 105.087 160.113C89.4129 159.902 75.4616 154.479 65.8027 144.842C54.442 133.507 49.0493 119.14 51.3768 106.411C53.1245 96.8543 59.0526 89.0612 68.0694 84.467C68.1597 84.421 68.2668 84.4088 68.3672 84.4331C68.4676 84.4574 68.553 84.5161 68.6047 84.5965C68.6564 84.6768 68.6702 84.7721 68.6429 84.8614C68.6156 84.9507 68.5495 85.0267 68.4592 85.0727C59.6515 89.5601 53.8599 97.1784 52.151 106.524C49.8608 119.047 55.1829 133.198 66.3883 144.378C86.5709 164.515 123.283 164.554 149.968 144.465C154.584 140.99 158.519 137.406 162.325 133.941C171.379 125.697 179.198 118.576 191.061 118.312C202.142 118.065 207.646 123.154 210.313 127.468C210.363 127.549 210.375 127.644 210.346 127.733C210.317 127.822 210.25 127.897 210.159 127.941C210.067 127.986 209.96 127.997 209.86 127.971C209.76 127.945 209.676 127.885 209.626 127.804C207.063 123.66 201.771 118.773 191.081 119.009C179.537 119.267 171.821 126.293 162.887 134.428C159.068 137.905 155.119 141.501 150.474 144.997C137.497 154.767 121.743 160.119 106.016 160.119Z" fill="#1AA9E8"/>
<path d="M59.8378 127.318C57.9999 122.669 57.0217 117.969 56.9307 113.349L58.8914 113.318C58.9788 117.751 59.9198 122.266 61.6879 126.739L59.8378 127.318Z" fill="#C7A0F6"/>
<path d="M120.045 155.936L119.617 154.234C124.202 153.321 128.738 151.948 133.101 150.153L133.924 151.736C129.436 153.584 124.766 154.997 120.045 155.936Z" fill="#00E2EC"/>
<path d="M68.2647 86.1512C69.1221 86.1512 69.8171 85.533 69.8171 84.7703C69.8171 84.0077 69.1221 83.3894 68.2647 83.3894C67.4073 83.3894 66.7123 84.0077 66.7123 84.7703C66.7123 85.533 67.4073 86.1512 68.2647 86.1512Z" fill="#FDE1A7"/>
<path d="M199.105 183.079L195.032 183.763L197.695 179.613L199.105 183.079Z" fill="#00E2EC"/>
<path d="M169.134 191.146C168.593 191.146 168.071 191.133 167.572 191.108C167.521 191.105 167.47 191.093 167.424 191.074C167.378 191.054 167.336 191.026 167.302 190.992C167.267 190.957 167.241 190.918 167.224 190.874C167.207 190.831 167.2 190.785 167.203 190.74C167.21 190.648 167.257 190.562 167.334 190.5C167.412 190.439 167.513 190.407 167.617 190.411C175.18 190.793 188.187 188.341 193.018 180.041C195.18 176.326 195.786 171 196.428 165.361C197.491 156.015 198.591 146.352 206.758 141.876C206.847 141.827 206.953 141.812 207.054 141.833C207.156 141.855 207.243 141.911 207.298 141.99C207.352 142.068 207.369 142.163 207.345 142.253C207.321 142.343 207.258 142.421 207.169 142.47C199.333 146.765 198.253 156.254 197.209 165.431C196.559 171.138 195.945 176.529 193.715 180.362C189.033 188.404 177.023 191.146 169.134 191.146Z" fill="#1AA9E8"/>
<path d="M200.44 176.327L198.532 175.925C199.332 172.926 199.723 169.489 200.138 165.85C200.254 164.826 200.371 163.795 200.499 162.765L202.449 162.957C202.324 163.979 202.204 165.002 202.089 166.026C201.668 169.724 201.27 173.216 200.44 176.327Z" fill="#F95FC3"/>
<path d="M167.594 192.14C168.451 192.14 169.146 191.522 169.146 190.76C169.146 189.997 168.451 189.379 167.594 189.379C166.736 189.379 166.041 189.997 166.041 190.76C166.041 191.522 166.736 192.14 167.594 192.14Z" fill="#C7A0F6"/>
<defs>
<linearGradient id="paint0_linear_5_137" x1="79.1395" y1="53.4814" x2="240.69" y2="235.098" gradientUnits="userSpaceOnUse">
<stop stop-color="#DBEFFF"/>
<stop offset="1" stop-color="#F7EBFF"/>
</linearGradient>
<linearGradient id="paint1_linear_5_137" x1="245.766" y1="276.309" x2="245.766" y2="260.568" gradientUnits="userSpaceOnUse">
<stop stop-color="#F7EBFF"/>
<stop offset="1" stop-color="#DBEFFF"/>
</linearGradient>
<linearGradient id="paint2_linear_5_137" x1="102.538" y1="284.871" x2="102.538" y2="270.417" gradientUnits="userSpaceOnUse">
<stop stop-color="#F7EBFF"/>
<stop offset="1" stop-color="#DBEFFF"/>
</linearGradient>
<linearGradient id="paint3_linear_5_137" x1="152.318" y1="173.733" x2="160.597" y2="183.041" gradientUnits="userSpaceOnUse">
<stop stop-color="#FF57BD"/>
<stop offset="1" stop-color="#FE6A77"/>
</linearGradient>
<linearGradient id="paint4_linear_5_137" x1="152.317" y1="186.592" x2="160.597" y2="195.901" gradientUnits="userSpaceOnUse">
<stop stop-color="#FF57BD"/>
<stop offset="1" stop-color="#FE6A77"/>
</linearGradient>
<linearGradient id="paint5_linear_5_137" x1="152.318" y1="199.453" x2="160.597" y2="208.76" gradientUnits="userSpaceOnUse">
<stop stop-color="#FF57BD"/>
<stop offset="1" stop-color="#FE6A77"/>
</linearGradient>
<linearGradient id="paint6_linear_5_137" x1="137.928" y1="123.867" x2="184.209" y2="175.896" gradientUnits="userSpaceOnUse">
<stop stop-color="#706AED"/>
<stop offset="1" stop-color="#271068"/>
</linearGradient>
<linearGradient id="paint7_linear_5_137" x1="142.058" y1="129.816" x2="162.814" y2="129.816" gradientUnits="userSpaceOnUse">
<stop stop-color="white"/>
<stop offset="1" stop-color="#F1D1F8"/>
</linearGradient>
<linearGradient id="paint8_linear_5_137" x1="183.045" y1="164.327" x2="183.045" y2="130.485" gradientUnits="userSpaceOnUse">
<stop stop-color="#FDE1A7"/>
<stop offset="1" stop-color="#F9A144"/>
</linearGradient>
<linearGradient id="paint9_linear_5_137" x1="179.908" y1="137.143" x2="186.183" y2="137.143" gradientUnits="userSpaceOnUse">
<stop stop-color="#00E2EC"/>
<stop offset="1" stop-color="#0090B2"/>
</linearGradient>
<linearGradient id="paint10_linear_5_137" x1="164.121" y1="164.327" x2="164.121" y2="137.899" gradientUnits="userSpaceOnUse">
<stop stop-color="#1AA9E8"/>
<stop offset="0.422" stop-color="#3D80EF"/>
<stop offset="0.791" stop-color="#5662F4"/>
<stop offset="1" stop-color="#5F57F6"/>
</linearGradient>
<linearGradient id="paint11_linear_5_137" x1="160.983" y1="145.676" x2="167.258" y2="145.676" gradientUnits="userSpaceOnUse">
<stop stop-color="#00E2EC"/>
<stop offset="1" stop-color="#0090B2"/>
</linearGradient>
<linearGradient id="paint12_linear_5_137" x1="173.583" y1="164.327" x2="173.583" y2="142.784" gradientUnits="userSpaceOnUse">
<stop stop-color="#FF57BD"/>
<stop offset="1" stop-color="#FE6A77"/>
</linearGradient>
<linearGradient id="paint13_linear_5_137" x1="170.445" y1="148.118" x2="176.721" y2="148.118" gradientUnits="userSpaceOnUse">
<stop stop-color="#00E2EC"/>
<stop offset="1" stop-color="#0090B2"/>
</linearGradient>
<linearGradient id="paint14_linear_5_137" x1="154.658" y1="164.327" x2="154.658" y2="133.189" gradientUnits="userSpaceOnUse">
<stop stop-color="#C7A0F6"/>
<stop offset="1" stop-color="#FF57BD"/>
</linearGradient>
<linearGradient id="paint15_linear_5_137" x1="151.521" y1="138.931" x2="157.796" y2="138.931" gradientUnits="userSpaceOnUse">
<stop stop-color="#00E2EC"/>
<stop offset="1" stop-color="#0090B2"/>
</linearGradient>
<linearGradient id="paint16_linear_5_137" x1="145.196" y1="164.327" x2="145.196" y2="148.54" gradientUnits="userSpaceOnUse">
<stop stop-color="#FDE1A7"/>
<stop offset="1" stop-color="#F9A144"/>
</linearGradient>
<linearGradient id="paint17_linear_5_137" x1="142.058" y1="153.293" x2="148.334" y2="153.293" gradientUnits="userSpaceOnUse">
<stop stop-color="#00E2EC"/>
<stop offset="1" stop-color="#0090B2"/>
</linearGradient>
<linearGradient id="paint18_linear_5_137" x1="67.8058" y1="54.2962" x2="106.962" y2="98.3153" gradientUnits="userSpaceOnUse">
<stop stop-color="#00E2EC"/>
<stop offset="1" stop-color="#0090B2"/>
</linearGradient>
<linearGradient id="paint19_linear_5_137" x1="92.4664" y1="64.0214" x2="113.744" y2="64.0214" gradientUnits="userSpaceOnUse">
<stop stop-color="white"/>
<stop offset="1" stop-color="#F1D1F8"/>
</linearGradient>
<linearGradient id="paint20_linear_5_137" x1="110.476" y1="83.3875" x2="131.395" y2="83.3875" gradientUnits="userSpaceOnUse">
<stop stop-color="#FDE1A7"/>
<stop offset="1" stop-color="#F9A144"/>
</linearGradient>
<linearGradient id="paint21_linear_5_137" x1="126.491" y1="62.2372" x2="178.105" y2="62.2372" gradientUnits="userSpaceOnUse">
<stop stop-color="#5A55F8"/>
<stop offset="1" stop-color="#8C6AE2"/>
</linearGradient>
<linearGradient id="paint22_linear_5_137" x1="119.194" y1="94.1307" x2="186.829" y2="94.1307" gradientUnits="userSpaceOnUse">
<stop stop-color="#FF57BD"/>
<stop offset="1" stop-color="#FE6A77"/>
</linearGradient>
<linearGradient id="paint23_linear_5_137" x1="133.721" y1="93.7932" x2="160.867" y2="93.7932" gradientUnits="userSpaceOnUse">
<stop stop-color="#C7A0F6"/>
<stop offset="1" stop-color="#FF57BD"/>
</linearGradient>
<linearGradient id="paint24_linear_5_137" x1="148.652" y1="84.6266" x2="164.603" y2="84.6266" gradientUnits="userSpaceOnUse">
<stop stop-color="#994574"/>
<stop offset="1" stop-color="#43256F"/>
</linearGradient>
<linearGradient id="paint25_linear_5_137" x1="137.381" y1="76.6614" x2="147.345" y2="87.8629" gradientUnits="userSpaceOnUse">
<stop stop-color="#1AA9E8"/>
<stop offset="0.422" stop-color="#3D80EF"/>
<stop offset="0.791" stop-color="#5662F4"/>
<stop offset="1" stop-color="#5F57F6"/>
</linearGradient>
<linearGradient id="paint26_linear_5_137" x1="202.966" y1="37.1605" x2="264.421" y2="106.249" gradientUnits="userSpaceOnUse">
<stop stop-color="#C91C91"/>
<stop offset="1" stop-color="#FE6A77"/>
</linearGradient>
<linearGradient id="paint27_linear_5_137" x1="201.531" y1="57.9738" x2="228.371" y2="57.9738" gradientUnits="userSpaceOnUse">
<stop stop-color="white"/>
<stop offset="1" stop-color="#F1D1F8"/>
</linearGradient>
<linearGradient id="paint28_linear_5_137" x1="240.035" y1="83.6753" x2="240.035" y2="51.7499" gradientUnits="userSpaceOnUse">
<stop stop-color="#994574"/>
<stop offset="1" stop-color="#9F36AD"/>
</linearGradient>
<linearGradient id="paint29_linear_5_137" x1="201.531" y1="69.778" x2="273.962" y2="69.778" gradientUnits="userSpaceOnUse">
<stop stop-color="#FE6A77"/>
<stop offset="1" stop-color="#FF57BD"/>
</linearGradient>
<linearGradient id="paint30_linear_5_137" x1="148.389" y1="43.0592" x2="183.035" y2="43.0592" gradientUnits="userSpaceOnUse">
<stop stop-color="#FDE1A7"/>
<stop offset="1" stop-color="#F9A144"/>
</linearGradient>
<linearGradient id="paint31_linear_5_137" x1="205.948" y1="137.407" x2="236.373" y2="137.407" gradientUnits="userSpaceOnUse">
<stop stop-color="#00E2EC"/>
<stop offset="1" stop-color="#0090B2"/>
</linearGradient>
<linearGradient id="paint32_linear_5_137" x1="210.521" y1="127.058" x2="229.061" y2="147.9" gradientUnits="userSpaceOnUse">
<stop stop-color="#994574"/>
<stop offset="1" stop-color="#43256F"/>
</linearGradient>
<linearGradient id="paint33_linear_5_137" x1="234.838" y1="239.013" x2="250.626" y2="239.013" gradientUnits="userSpaceOnUse">
<stop stop-color="#F4BEA3"/>
<stop offset="1" stop-color="#E8878E"/>
</linearGradient>
<linearGradient id="paint34_linear_5_137" x1="229.331" y1="266.398" x2="247.457" y2="266.398" gradientUnits="userSpaceOnUse">
<stop stop-color="#706AED"/>
<stop offset="1" stop-color="#271068"/>
</linearGradient>
<linearGradient id="paint35_linear_5_137" x1="257.592" y1="239.918" x2="272.538" y2="239.918" gradientUnits="userSpaceOnUse">
<stop stop-color="#F4BEA3"/>
<stop offset="1" stop-color="#E8878E"/>
</linearGradient>
<linearGradient id="paint36_linear_5_137" x1="254.552" y1="266.676" x2="272.688" y2="266.676" gradientUnits="userSpaceOnUse">
<stop stop-color="#706AED"/>
<stop offset="1" stop-color="#271068"/>
</linearGradient>
<linearGradient id="paint37_linear_5_137" x1="235.359" y1="181.283" x2="270.528" y2="220.821" gradientUnits="userSpaceOnUse">
<stop stop-color="#FF57BD"/>
<stop offset="1" stop-color="#FE6A77"/>
</linearGradient>
<linearGradient id="paint38_linear_5_137" x1="227.66" y1="136.403" x2="232.069" y2="136.403" gradientUnits="userSpaceOnUse">
<stop stop-color="#C16846"/>
<stop offset="0.265" stop-color="#D27565"/>
<stop offset="0.531" stop-color="#DE7F7B"/>
<stop offset="0.781" stop-color="#E58589"/>
<stop offset="1" stop-color="#E8878E"/>
</linearGradient>
<linearGradient id="paint39_linear_5_137" x1="238.273" y1="149.384" x2="253.144" y2="149.384" gradientUnits="userSpaceOnUse">
<stop stop-color="#FDE1A7"/>
<stop offset="1" stop-color="#F9A144"/>
</linearGradient>
<linearGradient id="paint40_linear_5_137" x1="224.573" y1="139.051" x2="243.766" y2="139.051" gradientUnits="userSpaceOnUse">
<stop stop-color="#F4BEA3"/>
<stop offset="1" stop-color="#E8878E"/>
</linearGradient>
<linearGradient id="paint41_linear_5_137" x1="242.524" y1="155.149" x2="268.031" y2="155.149" gradientUnits="userSpaceOnUse">
<stop stop-color="#FDE1A7"/>
<stop offset="1" stop-color="#F9A144"/>
</linearGradient>
<linearGradient id="paint42_linear_5_137" x1="266.377" y1="120.266" x2="287.103" y2="143.566" gradientUnits="userSpaceOnUse">
<stop stop-color="#5A55F8"/>
<stop offset="1" stop-color="#8C6AE2"/>
</linearGradient>
<linearGradient id="paint43_linear_5_137" x1="253.114" y1="133.291" x2="263.312" y2="133.291" gradientUnits="userSpaceOnUse">
<stop stop-color="#F4BEA3"/>
<stop offset="1" stop-color="#E8878E"/>
</linearGradient>
<linearGradient id="paint44_linear_5_137" x1="246.276" y1="122.298" x2="264.414" y2="122.298" gradientUnits="userSpaceOnUse">
<stop stop-color="#F4BEA3"/>
<stop offset="1" stop-color="#E8878E"/>
</linearGradient>
<linearGradient id="paint45_linear_5_137" x1="245.948" y1="120.985" x2="252.21" y2="120.985" gradientUnits="userSpaceOnUse">
<stop stop-color="#FF57BD"/>
<stop offset="1" stop-color="#EC9895"/>
</linearGradient>
<linearGradient id="paint46_linear_5_137" x1="250.012" y1="118.202" x2="270.235" y2="118.202" gradientUnits="userSpaceOnUse">
<stop stop-color="#5A55F8"/>
<stop offset="1" stop-color="#8C6AE2"/>
</linearGradient>
<linearGradient id="paint47_linear_5_137" x1="210.996" y1="148.97" x2="225.393" y2="148.97" gradientUnits="userSpaceOnUse">
<stop stop-color="#F4BEA3"/>
<stop offset="1" stop-color="#E8878E"/>
</linearGradient>
<linearGradient id="paint48_linear_5_137" x1="221.469" y1="153.982" x2="265.322" y2="153.982" gradientUnits="userSpaceOnUse">
<stop stop-color="#FDE1A7"/>
<stop offset="1" stop-color="#F9A144"/>
</linearGradient>
<linearGradient id="paint49_linear_5_137" x1="111.657" y1="202.778" x2="130.928" y2="224.443" gradientUnits="userSpaceOnUse">
<stop stop-color="#00E2EC"/>
<stop offset="1" stop-color="#0090B2"/>
</linearGradient>
<linearGradient id="paint50_linear_5_137" x1="110.896" y1="202.101" x2="131.511" y2="225.277" gradientUnits="userSpaceOnUse">
<stop stop-color="#706AED"/>
<stop offset="1" stop-color="#271068"/>
</linearGradient>
<linearGradient id="paint51_linear_5_137" x1="80.0505" y1="269.725" x2="91.2734" y2="282.341" gradientUnits="userSpaceOnUse">
<stop stop-color="#706AED"/>
<stop offset="1" stop-color="#271068"/>
</linearGradient>
<linearGradient id="paint52_linear_5_137" x1="57.8748" y1="198.673" x2="107.426" y2="254.379" gradientUnits="userSpaceOnUse">
<stop stop-color="#994574"/>
<stop offset="1" stop-color="#43256F"/>
</linearGradient>
<linearGradient id="paint53_linear_5_137" x1="112.013" y1="272.224" x2="122.718" y2="284.259" gradientUnits="userSpaceOnUse">
<stop stop-color="#706AED"/>
<stop offset="1" stop-color="#271068"/>
</linearGradient>
<linearGradient id="paint54_linear_5_137" x1="73.4621" y1="195.089" x2="132.968" y2="261.986" gradientUnits="userSpaceOnUse">
<stop stop-color="#994574"/>
<stop offset="1" stop-color="#43256F"/>
</linearGradient>
<linearGradient id="paint55_linear_5_137" x1="88.0092" y1="103.613" x2="115.934" y2="103.613" gradientUnits="userSpaceOnUse">
<stop stop-color="#F4BEA3"/>
<stop offset="1" stop-color="#E8878E"/>
</linearGradient>
<linearGradient id="paint56_linear_5_137" x1="71.0828" y1="135.171" x2="112.593" y2="181.837" gradientUnits="userSpaceOnUse">
<stop stop-color="#1AA9E8"/>
<stop offset="0.422" stop-color="#3D80EF"/>
<stop offset="0.791" stop-color="#5662F4"/>
<stop offset="1" stop-color="#5F57F6"/>
</linearGradient>
<linearGradient id="paint57_linear_5_137" x1="105.403" y1="120.198" x2="110.387" y2="120.198" gradientUnits="userSpaceOnUse">
<stop stop-color="#EC9895"/>
<stop offset="1" stop-color="#FF57BD"/>
</linearGradient>
<linearGradient id="paint58_linear_5_137" x1="88.8807" y1="120.594" x2="105.237" y2="138.983" gradientUnits="userSpaceOnUse">
<stop stop-color="#F4BEA3"/>
<stop offset="1" stop-color="#E8878E"/>
</linearGradient>
<linearGradient id="paint59_linear_5_137" x1="86.7427" y1="118.55" x2="106.53" y2="118.55" gradientUnits="userSpaceOnUse">
<stop stop-color="#CB2090"/>
<stop offset="1" stop-color="#43256F"/>
</linearGradient>
<linearGradient id="paint60_linear_5_137" x1="101.004" y1="124.704" x2="108.523" y2="133.156" gradientUnits="userSpaceOnUse">
<stop stop-color="#CB2090"/>
<stop offset="1" stop-color="#43256F"/>
</linearGradient>
<linearGradient id="paint61_linear_5_137" x1="89.5682" y1="140.187" x2="102.474" y2="140.187" gradientUnits="userSpaceOnUse">
<stop stop-color="#1AA9E8"/>
<stop offset="0.422" stop-color="#3D80EF"/>
<stop offset="0.791" stop-color="#5662F4"/>
<stop offset="1" stop-color="#5F57F6"/>
</linearGradient>
<linearGradient id="paint62_linear_5_137" x1="105.316" y1="185.899" x2="125.232" y2="185.899" gradientUnits="userSpaceOnUse">
<stop stop-color="#F4BEA3"/>
<stop offset="1" stop-color="#E8878E"/>
</linearGradient>
<linearGradient id="paint63_linear_5_137" x1="102.028" y1="156.223" x2="117.688" y2="156.223" gradientUnits="userSpaceOnUse">
<stop stop-color="#1AA9E8"/>
<stop offset="0.422" stop-color="#3D80EF"/>
<stop offset="0.791" stop-color="#5662F4"/>
<stop offset="1" stop-color="#5F57F6"/>
</linearGradient>
</defs>
</svg>
