<svg width="380" height="319" viewBox="0 0 380 319" fill="none" xmlns="http://www.w3.org/2000/svg">
<g clip-path="url(#clip0_5_262)">
<path opacity="0.18" d="M281.218 55.4312C269.618 41.976 260.639 25.913 246.775 14.9269C224.999 -2.35206 193.658 -4.03729 168.195 6.82074C142.732 17.6788 122.88 39.5655 109.806 64.348C102.929 77.3873 97.5272 91.6105 87.4498 102.266C78.9307 111.268 67.7341 117.012 57.1179 123.267C40.0171 133.331 23.5333 145.479 12.457 162.156C1.38064 178.832 -3.57181 200.735 3.5091 219.528C8.28374 232.21 17.901 242.3 27.7536 251.436C39.3477 262.176 51.8099 272.261 66.1913 278.634C84.1865 286.596 104.185 288.308 123.785 289.119C158.533 290.549 193.337 289.48 227.938 285.919C256.272 283.007 285.464 278.037 309.17 261.947C342.378 239.415 359.5 198.132 363.354 157.649C364.923 141.458 364.526 124.633 358.396 109.609C343.738 73.6755 304.186 82.0803 281.218 55.4312Z" fill="#68E1FD"/>
<path d="M140.604 127.576C140.604 127.576 127.462 125.219 123.78 134.509C120.098 143.799 123.78 175.883 123.78 175.883L172.813 211.284L140.604 127.576Z" fill="#3F3D56"/>
<path d="M202.365 270.464L183.345 276.208C182.018 276.605 180.59 276.45 179.375 275.776C178.16 275.103 177.256 273.965 176.861 272.613C176.471 271.26 176.623 269.804 177.284 268.565C177.944 267.325 179.06 266.403 180.385 266.001L199.4 260.262C200.727 259.865 202.154 260.019 203.369 260.692C204.584 261.364 205.489 262.5 205.885 263.851C206.275 265.204 206.123 266.659 205.464 267.899C204.804 269.138 203.69 270.06 202.365 270.464Z" fill="#68E1FD"/>
<path d="M209.849 284.789C210.955 279.984 208.03 275.174 203.317 274.046C198.605 272.919 193.888 275.901 192.783 280.707C191.677 285.513 194.602 290.323 199.315 291.45C204.027 292.578 208.744 289.595 209.849 284.789Z" fill="#25233A"/>
<path d="M199.735 288.031C202.155 288.031 204.117 286.03 204.117 283.562C204.117 281.094 202.155 279.093 199.735 279.093C197.315 279.093 195.353 281.094 195.353 283.562C195.353 286.03 197.315 288.031 199.735 288.031Z" fill="#3F3D56"/>
<path d="M172.376 280.237C175.799 276.746 175.799 271.087 172.376 267.597C168.953 264.106 163.404 264.106 159.981 267.597C156.558 271.087 156.558 276.746 159.981 280.237C163.404 283.728 168.953 283.728 172.376 280.237Z" fill="#25233A"/>
<path d="M168.985 274.72C168.985 275.604 168.728 276.468 168.246 277.203C167.765 277.938 167.08 278.511 166.279 278.849C165.479 279.187 164.598 279.276 163.747 279.103C162.897 278.931 162.116 278.505 161.504 277.88C160.891 277.255 160.473 276.459 160.304 275.592C160.135 274.725 160.222 273.826 160.554 273.01C160.885 272.193 161.447 271.495 162.168 271.004C162.888 270.513 163.736 270.251 164.602 270.251C165.764 270.252 166.878 270.724 167.7 271.561C168.521 272.399 168.983 273.535 168.985 274.72Z" fill="url(#paint0_linear_5_262)"/>
<path d="M163.64 295.076C168.481 295.076 172.405 291.074 172.405 286.138C172.405 281.201 168.481 277.2 163.64 277.2C158.799 277.2 154.875 281.201 154.875 286.138C154.875 291.074 158.799 295.076 163.64 295.076Z" fill="#25233A"/>
<path d="M170.564 286.437C170.564 287.321 170.307 288.185 169.826 288.919C169.344 289.654 168.66 290.227 167.859 290.565C167.058 290.904 166.177 290.992 165.327 290.82C164.477 290.647 163.696 290.222 163.083 289.597C162.47 288.972 162.053 288.175 161.884 287.308C161.714 286.442 161.801 285.543 162.133 284.726C162.465 283.91 163.026 283.212 163.747 282.721C164.468 282.23 165.315 281.968 166.182 281.968C167.344 281.968 168.459 282.438 169.281 283.277C170.102 284.115 170.564 285.251 170.564 286.437Z" fill="#3F3D56"/>
<path d="M203.077 279.232L162.992 270.981C161.637 270.699 160.447 269.88 159.682 268.704C158.918 267.529 158.641 266.093 158.912 264.71C159.19 263.329 159.992 262.117 161.143 261.337C162.295 260.558 163.702 260.275 165.057 260.55L205.142 268.795C206.497 269.078 207.687 269.896 208.452 271.072C209.216 272.247 209.493 273.684 209.221 275.067C208.945 276.448 208.144 277.662 206.992 278.443C205.841 279.223 204.433 279.507 203.077 279.232Z" fill="#68E1FD"/>
<path d="M178.367 215.011H189.312V262.022C189.312 263.502 188.736 264.92 187.71 265.967C186.684 267.013 185.293 267.6 183.842 267.6C182.391 267.6 181 267.013 179.974 265.967C178.948 264.92 178.372 263.502 178.372 262.022V215.011H178.367Z" fill="#68E1FD"/>
<path d="M182.294 276.144L163.279 281.898C161.951 282.297 160.522 282.143 159.306 281.469C158.089 280.795 157.184 279.657 156.789 278.304C156.4 276.95 156.552 275.494 157.213 274.255C157.873 273.015 158.988 272.093 160.314 271.691L179.329 265.952C180.656 265.555 182.083 265.709 183.298 266.382C184.513 267.055 185.418 268.191 185.814 269.542C186.2 270.893 186.047 272.345 185.388 273.582C184.729 274.819 183.617 275.74 182.294 276.144Z" fill="#68E1FD"/>
<path d="M185.442 275.573L183.351 276.208C182.727 276.396 182.074 276.463 181.426 276.405L182.299 276.144C182.907 275.962 183.476 275.667 183.978 275.275L185.442 275.573Z" fill="url(#paint1_linear_5_262)"/>
<path d="M206.105 265.366C206.103 266.591 205.686 267.779 204.923 268.726L188.292 265.297C188.711 264.715 189.013 264.056 189.182 263.355L199.426 260.262C200.203 260.034 201.022 259.992 201.818 260.141C202.613 260.289 203.364 260.624 204.011 261.119C204.658 261.613 205.184 262.254 205.548 262.991C205.911 263.728 206.101 264.541 206.105 265.366Z" fill="url(#paint2_linear_5_262)"/>
<path opacity="0.31" d="M178.508 263.291C178.413 262.875 178.366 262.449 178.367 262.022V215.011H182.169V265.675C182.132 265.924 182.144 266.178 182.205 266.422C181.63 266.169 181.012 266.029 180.385 266.011C179.943 265.98 179.499 265.98 179.057 266.011L179.329 265.931C179.496 265.899 178.728 264.251 178.508 263.291Z" fill="url(#paint3_linear_5_262)"/>
<path opacity="0.31" d="M206.596 278.656C205.832 279.086 204.974 279.311 204.102 279.312C203.75 279.311 203.4 279.275 203.056 279.205L185.421 275.573L183.952 275.275C183.45 275.667 182.881 275.962 182.273 276.144L181.4 276.405L163.279 281.898C161.951 282.297 160.522 282.143 159.306 281.469C158.089 280.795 157.184 279.657 156.789 278.304C157.552 279.024 158.536 279.451 159.573 279.511C160.611 279.571 161.636 279.261 162.474 278.634C164.686 277.072 173.493 274.725 178.482 273.477C179.635 273.195 180.684 272.578 181.501 271.701C182.318 270.823 182.868 269.723 183.084 268.534C183.084 268.384 183.131 268.246 183.147 268.107C183.978 269.024 185.505 270.053 188.266 270.928C195.065 273.061 206.105 274.475 206.105 274.475C206.105 274.475 208.097 276.469 206.596 278.656Z" fill="url(#paint4_linear_5_262)"/>
<path d="M208.489 276.864C208.147 277.415 207.705 277.894 207.187 278.277C207.538 277.909 207.987 277.418 208.489 276.864Z" fill="url(#paint5_linear_5_262)"/>
<path d="M178.508 263.291C178.723 264.237 179.178 265.108 179.826 265.819C179.664 265.851 179.496 265.894 179.329 265.942L162.845 270.917C161.619 270.6 160.548 269.84 159.829 268.779C159.11 267.718 158.793 266.427 158.936 265.146C159.079 263.864 159.673 262.679 160.607 261.81C161.541 260.94 162.752 260.445 164.017 260.417C164.368 260.418 164.718 260.454 165.063 260.523L178.508 263.291Z" fill="url(#paint6_linear_5_262)"/>
<path d="M203.903 36.8458C203.903 36.8458 203.689 20.2707 190.662 21.7C177.635 23.1292 178.633 17.6416 173.069 18.2442C167.505 18.8468 161.041 24.4465 162.898 31.3634C164.754 38.2804 157.987 39.8269 153.542 45.0746C149.097 50.3223 154.588 54.6154 162.076 59.7458C169.565 64.8761 161.611 63.5482 166.051 71.6597C170.491 79.7713 185.521 69.4092 185.521 69.4092L203.903 36.8458Z" fill="#3F3D56"/>
<path d="M97.6422 314.168L106.883 314.488V239.234C106.883 239.234 107.348 219.774 125.359 217.822C143.37 215.87 306.712 191.759 306.712 191.759C306.712 191.759 313.186 191.061 316.905 203.705C320.623 216.35 324.263 266.15 324.263 266.15L374.41 273.029C374.41 273.029 375.733 185.109 357.628 180.262C339.523 175.414 102.752 200.138 102.752 200.138C102.752 200.138 85.1905 293.535 97.6422 314.168Z" fill="#68E1FD"/>
<path d="M97.6422 314.168L106.883 314.488V239.234C106.883 239.234 107.348 219.774 125.359 217.822C143.37 215.87 306.712 191.759 306.712 191.759C306.712 191.759 313.186 191.061 316.905 203.705C320.623 216.35 324.263 266.15 324.263 266.15L374.41 273.029C374.41 273.029 375.733 185.109 357.628 180.262C339.523 175.414 102.752 200.138 102.752 200.138C102.752 200.138 85.1905 293.535 97.6422 314.168Z" fill="url(#paint7_linear_5_262)"/>
<path d="M48.8813 209.369C48.8813 209.369 53.4101 183.813 85.2638 177.115L310.09 150.844C310.09 150.844 332.165 149.911 342.263 156.145C352.361 162.38 366.774 167.547 372.684 195.759C378.593 223.971 380.005 272.165 380.005 272.165L374.42 273.029C374.42 273.029 366.283 185.781 357.638 180.261C348.994 174.742 115.266 208.633 115.266 208.633C115.266 208.633 99.0543 211.924 97.6423 236.423C96.2303 260.923 97.6423 314.168 97.6423 314.168L48.8813 294.089V209.369Z" fill="#68E1FD"/>
<path opacity="0.19" d="M280.214 160.679C268.578 159.132 256.848 158.012 245.123 158.465C236.311 158.817 227.557 160.065 218.818 161.308L141.749 172.299C140.441 172.486 138.951 172.79 138.297 173.963C137.042 176.203 139.992 178.411 142.382 179.264C168.007 188.426 195.384 197.706 221.762 191.173C233.822 188.186 245.023 181.984 257.256 179.83C269.488 177.675 282.044 179.659 294.25 177.627C305.724 175.718 316.648 170.294 328.279 170.241C331.846 170.241 335.517 170.71 338.9 169.558C342.284 168.406 345.275 164.886 344.339 161.377C333.42 160.988 321.162 158.929 310.451 161.164C299.851 163.372 290.83 160.679 280.214 160.679Z" fill="url(#paint8_linear_5_262)"/>
<path d="M210.518 174.075L210.968 175.83C210.968 175.83 224.283 184.272 224.199 184.544C224.115 184.816 279.429 171.067 279.429 171.067L280.716 167.121L210.518 174.075Z" fill="url(#paint9_linear_5_262)"/>
<path d="M211.763 174.075L260.425 162.892L280.71 167.121L225.428 181.301L211.763 174.075Z" fill="url(#paint10_linear_5_262)"/>
<path d="M196.445 182.933L207.998 183.328C207.998 183.328 210.931 183.504 211.69 181.232C212.448 178.96 207.009 174.166 206.397 174.075C205.786 173.985 190.609 178.102 192.8 182.219L196.445 182.933Z" fill="url(#paint11_linear_5_262)"/>
<path d="M62.9176 298.964L57.2957 316.371C40.9898 322.274 27.126 316.371 27.126 316.371L23.094 298.126C23.094 298.126 43.432 304.99 62.9176 298.964Z" fill="#68E1FD"/>
<path d="M62.9176 298.964L57.2957 316.371C40.9898 322.274 27.126 316.371 27.126 316.371L23.094 298.126C23.094 298.126 43.432 304.99 62.9176 298.964Z" fill="url(#paint12_linear_5_262)"/>
<path d="M69.2925 282.757L67.4883 296.521L62.9176 298.964C43.4477 304.985 23.094 298.127 23.094 298.127L19.5849 295.46L17.9481 282.757H69.2925Z" fill="#68E1FD"/>
<path d="M69.2925 282.757L67.4883 296.521L62.9176 298.964C43.4477 304.985 23.094 298.127 23.094 298.127L19.5849 295.46L17.9481 282.757H69.2925Z" fill="url(#paint13_linear_5_262)"/>
<path d="M43.615 287.466C57.7905 287.466 69.282 285.358 69.282 282.757C69.282 280.156 57.7905 278.048 43.615 278.048C29.4396 278.048 17.9481 280.156 17.9481 282.757C17.9481 285.358 29.4396 287.466 43.615 287.466Z" fill="#68E1FD"/>
<path d="M43.615 287.466C57.7905 287.466 69.282 285.358 69.282 282.757C69.282 280.156 57.7905 278.048 43.615 278.048C29.4396 278.048 17.9481 280.156 17.9481 282.757C17.9481 285.358 29.4396 287.466 43.615 287.466Z" fill="url(#paint14_linear_5_262)"/>
<path d="M31.404 177.686C28.8833 176.47 26.1743 175.552 23.9936 173.776C19.6007 170.166 18.4868 163.948 17.1114 158.369C15.736 152.791 13.0794 146.637 7.65103 145.037C5.62193 144.445 3.24246 144.68 1.69972 146.151C0.0733049 147.714 -0.256161 150.274 0.188357 152.508C0.632875 154.743 1.71541 156.775 2.55215 158.908C4.50582 163.863 5.10058 169.266 4.27269 174.539C3.58761 178.864 1.95074 183.248 3.00189 187.488C4.78519 194.682 13.6703 198.9 13.9161 206.313C14.0835 211.316 10.0462 215.945 10.9614 220.867C11.636 224.51 14.9254 227.352 15.1032 231.053C15.302 235.25 11.4111 238.802 11.5994 242.999C11.7877 247.196 15.8981 250.017 18.5809 253.297C20.83 256.07 22.1674 259.493 22.4038 263.083C22.545 265.323 22.2626 267.643 22.979 269.766C23.502 271.317 24.5479 272.635 25.3585 274.032C26.2528 275.541 26.9274 277.173 28.0047 278.57C29.3591 280.311 31.1945 281.598 33.2736 282.263C35.3527 282.929 37.5798 282.943 39.6668 282.303C40.4983 276.725 39.7714 271.035 40.0015 265.398C40.4564 254.476 44.5094 243.468 41.9155 232.866C40.9637 228.979 39.1333 225.288 38.8091 221.299C38.5215 217.737 39.4524 214.206 40.1008 210.692C41.4396 203.433 41.4187 195.93 40.8696 188.592C40.4355 182.789 36.4192 180.107 31.404 177.686Z" fill="#68E1FD"/>
<path d="M47.4327 206.292C47.3909 211.161 48.4786 216.195 46.9516 220.819C45.7958 224.323 43.2542 227.192 41.9416 230.637C38.9136 238.589 42.9875 247.506 42.156 255.996C41.8108 259.494 40.6342 262.854 39.8916 266.288C38.9605 270.635 38.7256 275.107 39.196 279.53C39.1448 280.332 39.3782 281.125 39.8536 281.766C40.3289 282.406 41.0144 282.851 41.7847 283.018C44.3472 284.014 47.0015 284.745 49.7076 285.199C48.7866 280.043 49.7503 274.721 52.4165 270.24C56.5636 263.307 64.6225 258.636 66.1234 250.673C67.1379 245.282 64.7741 239.81 64.9415 234.322C65.0595 230.67 66.2917 227.147 68.4662 224.243C70.4169 221.651 73.0578 219.646 74.8725 216.958C79.234 210.478 77.8743 201.818 76.5774 194.069C75.2804 186.32 74.5274 177.403 79.6524 171.531C81.2736 169.675 83.3863 168.283 84.8559 166.3C88.1296 161.879 87.3033 155.068 83.4962 151.116C79.689 147.165 73.5599 146.071 68.3826 147.81C66.2384 148.535 64.1989 149.757 62.8705 151.634C60.2557 155.42 61.3016 160.593 62.4103 165.094C63.3778 169.003 64.157 173.515 62.8339 177.456C61.8455 180.389 59.3405 181.979 57.2121 184.021C51.2189 189.754 47.5007 197.882 47.4327 206.292Z" fill="#68E1FD"/>
<path d="M42.0305 249.436C41.2879 254.726 40.2158 260.059 39.9962 265.366C39.9962 265.547 39.9962 265.723 39.9962 265.899C39.9962 266.075 39.9334 266.155 39.9072 266.283C38.9762 270.63 38.7413 275.102 39.2117 279.525C39.2458 280.249 39.4351 280.958 39.7661 281.6C39.7399 281.824 39.7085 282.042 39.6772 282.266C37.5902 282.905 35.3631 282.891 33.284 282.226C31.2049 281.56 29.3694 280.274 28.0151 278.533C26.9692 277.136 26.2632 275.504 25.3689 273.995C24.5322 272.592 23.5124 271.275 22.9894 269.728C22.273 267.595 22.5554 265.286 22.4142 263.046C22.1777 259.456 20.8404 256.032 18.5913 253.26C15.9085 249.98 11.7928 247.228 11.6098 242.962C11.4267 238.695 15.3123 235.213 15.1136 231.016C14.9358 227.315 11.6464 224.472 10.9718 220.83C10.0566 215.907 14.1095 211.278 13.9265 206.276C13.6807 198.863 4.79557 194.645 3.01227 187.45C1.96634 183.211 3.59799 178.827 4.28307 174.502C5.11096 169.229 4.51619 163.825 2.56252 158.871C1.72578 156.737 0.643251 154.727 0.198733 152.471C-0.245785 150.215 0.0836809 147.671 1.71009 146.114C3.27898 144.642 5.63231 144.408 7.6614 144.999C13.0897 146.599 15.7412 152.754 17.1218 158.332C18.5024 163.91 19.6111 170.129 24.004 173.739C26.1743 175.526 28.8937 176.432 31.4143 177.648C36.4348 180.069 40.4511 182.752 40.88 188.522C41.4029 195.861 41.45 203.364 40.1112 210.622C39.4627 214.137 38.5423 217.667 38.8195 221.23C39.0967 224.792 40.6185 228.163 41.6121 231.618C41.7219 232.008 41.8318 232.402 41.9259 232.797C43.2438 238.285 42.8202 243.836 42.0305 249.436Z" fill="url(#paint15_linear_5_262)"/>
<path d="M39.7713 281.605C39.4403 280.963 39.2511 280.255 39.217 279.53C38.7466 275.107 38.9815 270.635 39.9125 266.289C39.9387 266.161 39.97 266.033 40.0014 265.905C39.8184 271.142 40.4146 276.421 39.7713 281.605Z" fill="url(#paint16_linear_5_262)"/>
<path d="M84.835 166.3C83.3654 168.283 81.2527 169.675 79.6315 171.531C74.5065 177.398 75.2595 186.32 76.5565 194.069C77.8534 201.818 79.2131 210.478 74.8516 216.958C73.0369 219.624 70.396 221.651 68.4453 224.243C66.2708 227.147 65.0386 230.67 64.9206 234.322C64.7532 239.81 67.117 245.282 66.1025 250.673C64.6016 258.636 56.5427 263.318 52.3956 270.24C49.7367 274.724 48.7804 280.045 49.7076 285.199C47.0086 284.744 44.3614 284.013 41.8056 283.018C41.1064 282.807 40.4723 282.416 39.9648 281.882C39.8927 281.795 39.828 281.703 39.7713 281.605C39.4403 280.963 39.2511 280.255 39.217 279.53C38.7466 275.107 38.9815 270.635 39.9125 266.288C39.9387 266.16 39.97 266.032 40.0014 265.904C40.744 262.603 41.8422 259.366 42.1769 255.996C42.3571 253.811 42.315 251.612 42.0514 249.436C42.8411 243.836 43.2647 238.285 41.9311 232.834C41.837 232.44 41.7272 232.045 41.6174 231.656C41.7167 231.314 41.8318 230.973 41.9625 230.637C43.2752 227.192 45.8168 224.323 46.9725 220.819C48.4943 216.195 47.4118 211.161 47.4536 206.292C47.5216 197.882 51.2399 189.76 57.2121 184.021C59.3406 181.979 61.8455 180.389 62.8339 177.456C64.157 173.515 63.3569 169.003 62.4103 165.094C61.2964 160.593 60.24 155.42 62.8705 151.634C64.178 149.757 66.2384 148.535 68.3826 147.81C73.539 146.071 79.6942 147.165 83.4962 151.116C87.2981 155.068 88.1087 161.905 84.835 166.3Z" fill="url(#paint17_linear_5_262)"/>
<path d="M177.53 82.6405C177.53 82.6405 155.529 86.0696 145.352 110.532C135.175 134.995 140.468 165.345 140.645 167.985C140.823 170.625 171.83 182.219 180.694 182.219C189.558 182.219 191.404 173.27 191.404 173.27L175.741 166.545L223.331 161.004H231.876L227.169 168.977C227.169 168.977 236.457 169.958 242.665 170.182C248.872 170.406 253.087 158.028 253.783 151.874C254.479 145.719 226.364 91.7493 222.165 88.5015C217.965 85.2537 206.544 77.5101 177.53 82.6405Z" fill="#68E1FD"/>
<path d="M203.903 36.8459C203.903 36.8459 207.799 39.1125 207.449 46.4454C207.098 53.7783 204.902 64.8123 202.684 67.6708C200.467 70.5293 192.712 71.6492 192.712 71.6492C192.712 71.6492 196.942 82.0433 200.091 84.7258C203.239 87.4083 196.927 97.2904 190.787 94.0479C184.648 90.8054 177.53 82.6406 177.53 82.6406C177.53 82.6406 182.65 72.8332 180.919 67.6708C179.188 62.5084 172.551 44.4135 177.53 39.4538C182.509 34.4941 193.161 27.4225 203.903 36.8459Z" fill="url(#paint18_linear_5_262)"/>
<path opacity="0.25" d="M168.624 117.876L165.178 161.004L175.715 166.545L184.292 165.046L173.592 151.879L168.624 117.876Z" fill="white"/>
<path opacity="0.25" d="M224.199 115.7C224.199 115.7 237.979 149.143 231.871 161.004L227.164 160.081L224.199 115.7Z" fill="white"/>
<path d="M185.678 171.723C185.678 171.723 180.417 176.523 182.765 180.256C185.113 183.989 187.916 183.883 190.254 182.213C192.591 180.544 197.183 176.582 202.653 178.4C208.123 180.219 209.452 181.376 209.452 181.376C209.452 181.376 212.333 179.451 211.585 177.52C210.837 175.59 205.116 169.334 203.458 168.502C201.801 167.67 194.918 170.182 194.918 170.182C194.918 170.182 189.861 168.742 185.678 171.723Z" fill="url(#paint19_linear_5_262)"/>
<path d="M233.435 162.716C233.435 162.716 228.425 163.302 227.159 166.545C225.893 169.787 225.438 170.182 225.438 170.182C225.438 170.182 228.268 170.715 229.444 169.206C230.621 167.697 231.845 168.331 231.845 168.331L231.494 170.267C231.494 170.267 239.182 171.409 242.654 170.182C246.127 168.955 247.617 167.515 247.617 167.515L248.977 164.241C248.977 164.241 245.698 161.9 243.224 161.537C240.751 161.175 233.435 162.716 233.435 162.716Z" fill="url(#paint20_linear_5_262)"/>
<path d="M258.861 198.772C258.861 198.772 275.925 212.02 274.409 229.939C272.892 247.858 270.664 274.464 270.664 274.464C270.664 274.464 263.782 277.419 259.222 274.464C254.662 271.51 251.9 231.08 249.641 227.219C247.382 223.358 233.79 205.951 219.268 204.452L258.861 198.772Z" fill="#25233A"/>
<path d="M172.813 211.262C172.813 211.262 181.039 219.262 195.703 221.774C210.367 224.286 217.202 226.382 221.684 239.239C226.165 252.097 230.464 279.77 231.871 282.864C233.278 285.957 239.26 284.378 239.26 284.378C239.26 284.378 242.644 280.421 242.644 258.417C242.644 227.741 244.736 221.454 237.2 213.748C229.664 206.041 222.808 203.94 222.808 203.94L172.813 211.262Z" fill="#3F3D56"/>
<path d="M231.871 282.863L233.267 294.089H235.882C235.882 294.089 252.721 295.028 253.25 294.623C253.778 294.217 252.439 285.733 246.059 285.973C239.679 286.213 239.26 284.373 239.26 284.373L231.871 282.863ZM261.282 275.386L264.002 286.437L293.716 282.277C293.716 282.277 294.762 275.019 285.349 275.738C282.865 275.925 281.014 277.706 278.028 277.722C275.042 277.738 272.181 276.49 270.675 274.464L261.282 275.386Z" fill="#25233A"/>
<path d="M364.897 136.376L252.423 142.52C251.755 142.556 251.086 142.453 250.458 142.217C249.83 141.981 249.256 141.618 248.77 141.148C248.284 140.679 247.897 140.113 247.632 139.486C247.368 138.859 247.231 138.184 247.23 137.501V56.2207C247.23 54.6378 247.838 53.1178 248.925 51.9871C250.011 50.8564 251.489 50.2051 253.04 50.173L365.054 47.8158C365.774 47.8009 366.491 47.9328 367.161 48.2038C367.831 48.4748 368.441 48.8794 368.956 49.3939C369.471 49.9085 369.88 50.5226 370.159 51.2003C370.438 51.8781 370.582 52.6058 370.581 53.3408V130.259C370.581 131.827 369.991 133.334 368.934 134.472C367.877 135.61 366.432 136.291 364.897 136.376Z" fill="#68E1FD"/>
<path d="M370.085 136.376L257.611 142.52C256.943 142.555 256.275 142.452 255.648 142.216C255.02 141.979 254.446 141.616 253.961 141.146C253.476 140.677 253.089 140.111 252.825 139.485C252.56 138.858 252.424 138.183 252.423 137.501V56.2208C252.422 54.6384 253.029 53.1184 254.114 51.9876C255.2 50.8567 256.677 50.2053 258.228 50.1731L370.241 47.8159C370.963 47.8003 371.68 47.9317 372.35 48.2024C373.021 48.473 373.632 48.8775 374.147 49.3921C374.662 49.9067 375.072 50.5211 375.351 51.1992C375.631 51.8773 375.775 52.6054 375.774 53.341V130.259C375.773 131.827 375.182 133.335 374.124 134.473C373.065 135.61 371.62 136.292 370.085 136.376Z" fill="#68E1FD"/>
<path d="M370.085 136.376L257.611 142.52C256.943 142.555 256.275 142.452 255.648 142.216C255.02 141.979 254.446 141.616 253.961 141.146C253.476 140.677 253.089 140.111 252.825 139.485C252.56 138.858 252.424 138.183 252.423 137.501V56.2208C252.422 54.6384 253.029 53.1184 254.114 51.9876C255.2 50.8567 256.677 50.2053 258.228 50.1731L370.241 47.8159C370.963 47.8003 371.68 47.9317 372.35 48.2024C373.021 48.473 373.632 48.8775 374.147 49.3921C374.662 49.9067 375.072 50.5211 375.351 51.1992C375.631 51.8773 375.775 52.6054 375.774 53.341V130.259C375.773 131.827 375.182 133.335 374.124 134.473C373.065 135.61 371.62 136.292 370.085 136.376Z" fill="url(#paint21_linear_5_262)"/>
<path d="M337.337 167.078L308.778 170.182C308.778 170.182 300.081 168.39 300.552 167.078C301.022 165.766 310.106 164.502 310.106 164.502V111.62C310.028 111.503 308.83 109.946 305.551 108.954C304.915 108.763 304.269 108.61 303.616 108.495C303.054 108.412 302.508 108.243 301.995 107.994C300.044 106.965 302.199 105.173 305.227 105.093C305.701 105.077 306.175 105.105 306.644 105.178H328.609C328.609 105.178 336.924 107.567 337.326 119.492C337.729 131.416 337.337 167.078 337.337 167.078Z" fill="#68E1FD"/>
<path d="M314.096 167.19L308.762 170.182C308.762 170.182 300.065 168.39 300.536 167.078C301.007 165.766 310.09 164.502 310.09 164.502V111.62C309.981 111.497 308.647 110.095 305.535 108.954C304.377 108.536 303.188 108.215 301.979 107.994C300.029 106.964 302.183 105.173 305.211 105.093C307.789 105.45 312.867 108.33 313.197 109.972C313.526 111.615 314.096 167.19 314.096 167.19Z" fill="#68E1FD"/>
<path d="M314.096 167.19L308.762 170.182C308.762 170.182 300.065 168.39 300.536 167.078C301.007 165.766 310.09 164.502 310.09 164.502V111.62C309.981 111.497 308.647 110.095 305.535 108.954C304.377 108.536 303.188 108.215 301.979 107.994C300.029 106.964 302.183 105.173 305.211 105.093C307.789 105.45 312.867 108.33 313.197 109.972C313.526 111.615 314.096 167.19 314.096 167.19Z" fill="url(#paint22_linear_5_262)"/>
<path d="M207.187 278.277C206.523 278.97 206.214 279.226 206.607 278.656C206.81 278.546 207.004 278.419 207.187 278.277Z" fill="url(#paint23_linear_5_262)"/>
</g>
<defs>
<linearGradient id="paint0_linear_5_262" x1="160.22" y1="274.72" x2="168.985" y2="274.72" gradientUnits="userSpaceOnUse">
<stop stop-color="#183866"/>
<stop offset="1" stop-color="#1A7FC1"/>
</linearGradient>
<linearGradient id="paint1_linear_5_262" x1="181.421" y1="275.851" x2="185.442" y2="275.851" gradientUnits="userSpaceOnUse">
<stop/>
<stop offset="0.99" stop-opacity="0"/>
</linearGradient>
<linearGradient id="paint2_linear_5_262" x1="190.39" y1="269.067" x2="214.469" y2="258.523" gradientUnits="userSpaceOnUse">
<stop/>
<stop offset="0.99" stop-opacity="0"/>
</linearGradient>
<linearGradient id="paint3_linear_5_262" x1="190.018" y1="237.384" x2="160.823" y2="246.985" gradientUnits="userSpaceOnUse">
<stop/>
<stop offset="0.99" stop-opacity="0"/>
</linearGradient>
<linearGradient id="paint4_linear_5_262" x1="206.152" y1="269.563" x2="131.323" y2="294.177" gradientUnits="userSpaceOnUse">
<stop/>
<stop offset="0.99" stop-opacity="0"/>
</linearGradient>
<linearGradient id="paint5_linear_5_262" x1="208.672" y1="277.285" x2="206.079" y2="278.14" gradientUnits="userSpaceOnUse">
<stop/>
<stop offset="0.99" stop-opacity="0"/>
</linearGradient>
<linearGradient id="paint6_linear_5_262" x1="180.15" y1="269.734" x2="157.441" y2="263.682" gradientUnits="userSpaceOnUse">
<stop/>
<stop offset="0.99" stop-opacity="0"/>
</linearGradient>
<linearGradient id="paint7_linear_5_262" x1="364.437" y1="240.167" x2="-40.9159" y2="259.287" gradientUnits="userSpaceOnUse">
<stop/>
<stop offset="0.99" stop-opacity="0"/>
</linearGradient>
<linearGradient id="paint8_linear_5_262" x1="137.973" y1="175.862" x2="344.486" y2="175.862" gradientUnits="userSpaceOnUse">
<stop stop-color="#183866"/>
<stop offset="1" stop-color="#1A7FC1"/>
</linearGradient>
<linearGradient id="paint9_linear_5_262" x1="245.437" y1="168.385" x2="246.29" y2="178.515" gradientUnits="userSpaceOnUse">
<stop stop-color="#68E1FD"/>
<stop offset="0.2" stop-color="#5DB4CF"/>
<stop offset="0.46" stop-color="#50819B"/>
<stop offset="0.69" stop-color="#475C76"/>
<stop offset="0.87" stop-color="#41455E"/>
<stop offset="0.99" stop-color="#3F3D56"/>
</linearGradient>
<linearGradient id="paint10_linear_5_262" x1="242.921" y1="150.749" x2="249.358" y2="187.793" gradientUnits="userSpaceOnUse">
<stop stop-color="#68E1FD"/>
<stop offset="0.2" stop-color="#5DB4CF"/>
<stop offset="0.46" stop-color="#50819B"/>
<stop offset="0.69" stop-color="#475C76"/>
<stop offset="0.87" stop-color="#41455E"/>
<stop offset="0.99" stop-color="#3F3D56"/>
</linearGradient>
<linearGradient id="paint11_linear_5_262" x1="202.25" y1="170.897" x2="202.131" y2="186.874" gradientUnits="userSpaceOnUse">
<stop stop-color="#68E1FD"/>
<stop offset="0.2" stop-color="#5DB4CF"/>
<stop offset="0.46" stop-color="#50819B"/>
<stop offset="0.69" stop-color="#475C76"/>
<stop offset="0.87" stop-color="#41455E"/>
<stop offset="0.99" stop-color="#3F3D56"/>
</linearGradient>
<linearGradient id="paint12_linear_5_262" x1="69.8677" y1="307.134" x2="34.5135" y2="308.457" gradientUnits="userSpaceOnUse">
<stop/>
<stop offset="0.99" stop-opacity="0"/>
</linearGradient>
<linearGradient id="paint13_linear_5_262" x1="75.2438" y1="290.591" x2="45.9513" y2="291.581" gradientUnits="userSpaceOnUse">
<stop/>
<stop offset="0.99" stop-opacity="0"/>
</linearGradient>
<linearGradient id="paint14_linear_5_262" x1="47.2078" y1="265.121" x2="31.8259" y2="337.786" gradientUnits="userSpaceOnUse">
<stop/>
<stop offset="0.99" stop-opacity="0"/>
</linearGradient>
<linearGradient id="paint15_linear_5_262" x1="40.5087" y1="282.127" x2="9.54981" y2="143.675" gradientUnits="userSpaceOnUse">
<stop/>
<stop offset="0.99" stop-opacity="0"/>
</linearGradient>
<linearGradient id="paint16_linear_5_262" x1="42.1769" y1="284.906" x2="38.5615" y2="268.729" gradientUnits="userSpaceOnUse">
<stop/>
<stop offset="0.99" stop-opacity="0"/>
</linearGradient>
<linearGradient id="paint17_linear_5_262" x1="37.9985" y1="292.143" x2="72.6849" y2="175.699" gradientUnits="userSpaceOnUse">
<stop/>
<stop offset="0.99" stop-opacity="0"/>
</linearGradient>
<linearGradient id="paint18_linear_5_262" x1="175.721" y1="63.4524" x2="207.475" y2="63.4524" gradientUnits="userSpaceOnUse">
<stop stop-color="#ECC4D7"/>
<stop offset="0.42" stop-color="#EFD4D1"/>
<stop offset="1" stop-color="#F2EAC9"/>
</linearGradient>
<linearGradient id="paint19_linear_5_262" x1="182.169" y1="175.83" x2="211.69" y2="175.83" gradientUnits="userSpaceOnUse">
<stop stop-color="#ECC4D7"/>
<stop offset="0.42" stop-color="#EFD4D1"/>
<stop offset="1" stop-color="#F2EAC9"/>
</linearGradient>
<linearGradient id="paint20_linear_5_262" x1="225.428" y1="166.124" x2="248.967" y2="166.124" gradientUnits="userSpaceOnUse">
<stop stop-color="#ECC4D7"/>
<stop offset="0.42" stop-color="#EFD4D1"/>
<stop offset="1" stop-color="#F2EAC9"/>
</linearGradient>
<linearGradient id="paint21_linear_5_262" x1="382.149" y1="141.229" x2="249.993" y2="55.4351" gradientUnits="userSpaceOnUse">
<stop/>
<stop offset="0.99" stop-opacity="0"/>
</linearGradient>
<linearGradient id="paint22_linear_5_262" x1="359.761" y1="188.762" x2="267.319" y2="104.232" gradientUnits="userSpaceOnUse">
<stop/>
<stop offset="0.99" stop-opacity="0"/>
</linearGradient>
<linearGradient id="paint23_linear_5_262" x1="207.25" y1="278.474" x2="206.368" y2="278.763" gradientUnits="userSpaceOnUse">
<stop/>
<stop offset="0.99" stop-opacity="0"/>
</linearGradient>
<clipPath id="clip0_5_262">
<rect width="380" height="319" fill="white"/>
</clipPath>
</defs>
</svg>
