<svg width="312" height="301" viewBox="0 0 312 301" fill="none" xmlns="http://www.w3.org/2000/svg">
<path d="M199.601 90.4175C199.601 90.4175 206.273 77.4839 207.218 71.9872C207.218 71.9872 213.19 57.3781 207.218 53.645C207.218 53.645 204.933 46.1494 201.124 50.294L192.928 57.819L199.601 90.4175Z" fill="white"/>
<path d="M199.205 93.1218L191.892 57.4957L200.423 49.6473C201.551 48.4128 202.739 47.9424 203.958 48.207C206.273 48.7067 207.584 51.9989 207.949 53.0571C213.83 57.2605 208.589 70.8408 208.071 72.1929C207.066 77.7779 200.667 90.2412 200.393 90.7703L199.205 93.1218ZM193.903 58.113L199.966 87.6545C201.916 83.6862 205.634 75.7497 206.304 71.8402L206.334 71.752L206.365 71.6638C207.949 67.7838 211.088 57.1135 206.73 54.3799L206.456 54.2035L206.365 53.8801C205.999 52.7044 204.872 50.2058 203.623 49.9413C203.105 49.8237 202.495 50.147 201.825 50.8819L201.764 50.9407L193.903 58.113Z" fill="#843A5F"/>
<path d="M114.898 87.8309C114.898 87.8309 93.3867 71.5757 99.4805 64.9031C99.4805 64.9031 102.863 49.2358 108.682 48.4422L110.693 44.3857L120.169 50.588L114.898 87.8309Z" fill="white"/>
<path d="M115.598 89.477L114.349 88.5364C113.679 88.0366 98.2922 76.3082 97.5304 68.4011C97.3781 66.902 97.7742 65.5792 98.6578 64.521C99.1757 62.1401 102.345 49.1477 108.073 47.678L110.358 43.0924L121.174 50.1765L115.598 89.477ZM111.089 45.7085L109.322 49.2653L108.834 49.324C104.599 49.8825 101.309 60.9055 100.394 65.0795L100.334 65.3147L100.181 65.491C99.5109 66.2259 99.2367 67.1077 99.3586 68.2247C99.9375 74.1624 110.541 83.1865 114.227 86.1554L119.194 51.0289L111.089 45.7085Z" fill="#843A5F"/>
<path d="M90.675 191.447C90.675 199.707 92.3615 207.887 95.6383 215.519C98.915 223.151 103.718 230.085 109.773 235.927C115.827 241.768 123.015 246.401 130.926 249.563C138.837 252.724 147.316 254.351 155.878 254.351C164.441 254.351 172.919 252.724 180.83 249.563C188.741 246.401 195.929 241.768 201.984 235.927C208.038 230.085 212.841 223.151 216.118 215.519C219.395 207.887 221.081 199.707 221.081 191.447C221.081 183.186 219.395 175.006 216.118 167.374C212.841 159.742 208.038 152.808 201.984 146.966C195.929 141.125 188.741 136.492 180.83 133.331C172.919 130.169 164.441 128.542 155.878 128.542C147.316 128.542 138.837 130.169 130.926 133.331C123.015 136.492 115.827 141.125 109.773 146.966C103.718 152.808 98.915 159.742 95.6383 167.374C92.3615 175.006 90.675 183.186 90.675 191.447Z" fill="#AE9AA4"/>
<path d="M155.878 255.233C138.206 255.233 121.601 248.59 109.109 236.538C96.6164 224.486 89.7305 208.466 89.7305 191.417C89.7305 174.368 96.6164 158.348 109.109 146.297C121.601 134.245 138.206 127.602 155.878 127.602C173.55 127.602 190.155 134.245 202.648 146.297C215.14 158.348 222.026 174.368 222.026 191.417C222.026 208.466 215.14 224.486 202.648 236.538C190.125 248.59 173.52 255.233 155.878 255.233ZM155.878 129.395C120.413 129.395 91.5891 157.231 91.5891 191.417C91.5891 225.632 120.443 253.44 155.878 253.44C191.313 253.44 220.167 225.603 220.167 191.417C220.167 157.231 191.313 129.395 155.878 129.395Z" fill="#843A5F"/>
<path d="M155.878 168.284L134.398 132.422H177.328L155.878 168.284Z" fill="white"/>
<path d="M155.878 170.047L132.844 131.541H178.943L155.878 170.047ZM135.982 133.304L155.848 166.52L175.713 133.304H135.982Z" fill="#843A5F"/>
<path d="M156.305 132.981L143.081 155.086H169.528L156.305 132.981Z" fill="#843A5F"/>
<path d="M112.734 52.2341V109.171C112.734 121.958 123.581 132.422 136.835 132.422H175.774C189.028 132.422 199.875 121.958 199.875 109.171V52.2341" fill="#E6D8DF"/>
<path d="M175.744 133.304H136.835C123.033 133.304 111.82 122.487 111.82 109.171V52.2341H113.648V109.171C113.648 121.517 124.038 131.541 136.835 131.541H175.774C188.571 131.541 198.961 121.517 198.961 109.171V52.2341H200.789V109.171C200.789 122.487 189.546 133.304 175.744 133.304Z" fill="#843A5F"/>
<path d="M111.028 76.367C111.028 81.6604 113.208 86.737 117.088 90.48C120.967 94.2231 126.23 96.3259 131.716 96.3259C137.203 96.3259 142.465 94.2231 146.345 90.48C150.225 86.737 152.405 81.6604 152.405 76.367C152.405 71.0735 150.225 65.9969 146.345 62.2539C142.465 58.5109 137.203 56.4081 131.716 56.4081C126.23 56.4081 120.967 58.5109 117.088 62.2539C113.208 65.9969 111.028 71.0735 111.028 76.367Z" fill="white"/>
<path d="M131.716 97.2371C119.803 97.2371 110.114 87.8896 110.114 76.3964C110.114 64.9031 119.803 55.5557 131.716 55.5557C143.63 55.5557 153.319 64.9031 153.319 76.3964C153.319 87.8896 143.66 97.2371 131.716 97.2371ZM131.716 57.2899C120.809 57.2899 111.942 65.8437 111.942 76.367C111.942 86.8902 120.809 95.444 131.716 95.444C142.624 95.444 151.491 86.8902 151.491 76.367C151.491 65.8437 142.624 57.2899 131.716 57.2899Z" fill="#843A5F"/>
<path d="M159.991 76.367C159.991 81.6604 162.171 86.737 166.051 90.48C169.931 94.2231 175.193 96.3259 180.68 96.3259C186.167 96.3259 191.429 94.2231 195.309 90.48C199.188 86.737 201.368 81.6604 201.368 76.367C201.368 73.7459 200.833 71.1506 199.793 68.729C198.753 66.3075 197.23 64.1073 195.309 62.2539C193.387 60.4006 191.107 58.9304 188.597 57.9274C186.087 56.9243 183.397 56.4081 180.68 56.4081C177.963 56.4081 175.273 56.9243 172.763 57.9274C170.253 58.9304 167.972 60.4006 166.051 62.2539C164.13 64.1073 162.606 66.3075 161.566 68.729C160.527 71.1506 159.991 73.7459 159.991 76.367Z" fill="white"/>
<path d="M180.68 97.2371C168.766 97.2371 159.077 87.8896 159.077 76.3964C159.077 64.9031 168.766 55.5557 180.68 55.5557C192.593 55.5557 202.282 64.9031 202.282 76.3964C202.282 87.8896 192.593 97.2371 180.68 97.2371ZM180.68 57.2899C169.772 57.2899 160.905 65.8437 160.905 76.367C160.905 86.8902 169.772 95.444 180.68 95.444C191.587 95.444 200.454 86.8902 200.454 76.367C200.454 65.8437 191.587 57.2899 180.68 57.2899Z" fill="#843A5F"/>
<path d="M162.216 80.7174H160.387C160.387 78.5422 158.559 76.7786 156.305 76.7786C154.05 76.7786 152.222 78.5422 152.222 80.7174H150.394C150.394 77.5722 153.045 75.0149 156.305 75.0149C159.565 74.9855 162.216 77.5722 162.216 80.7174ZM156.213 129.13C153.654 129.13 150.637 128.542 150.637 126.867H152.466C152.466 126.749 152.405 126.661 152.405 126.632C152.618 126.867 154.02 127.337 156.213 127.337C158.407 127.337 159.809 126.867 160.022 126.632C159.991 126.661 159.961 126.72 159.961 126.867H161.789C161.789 128.542 158.803 129.13 156.213 129.13Z" fill="#843A5F"/>
<path d="M115.903 25.7791C115.903 25.7791 98.2008 33.598 112.734 50.735C112.734 50.735 107.006 56.4376 141.375 53.792C141.375 53.792 153.441 56.3494 164.623 55.1148C164.623 55.1148 184.305 56.7609 199.875 52.4693C199.875 52.4693 204.202 43.8861 201.398 42.7985C198.595 41.7109 200.454 33.745 179.766 35.9496C179.766 35.9496 167.243 24.1917 154.416 27.8955C154.416 27.8955 141.253 26.1318 133.453 32.5398C133.392 32.481 116.909 38.3893 115.903 25.7791Z" fill="white"/>
<path d="M157.98 56.3199C149.693 56.3199 142.441 54.909 141.314 54.6739C131.046 55.4675 123.338 55.5851 118.371 55.0266C114.441 54.5857 112.308 53.7626 111.668 52.4105C111.363 51.8226 111.455 51.2347 111.638 50.7938C107.037 45.2088 105.3 39.9766 106.427 35.2147C108.073 28.307 115.233 25.0736 115.538 24.956L116.726 24.4269L116.817 25.6908C117.03 28.5127 118.127 30.5409 120.016 31.6873C124.373 34.3622 131.808 32.0401 132.935 31.6873C140.522 25.6027 152.557 26.7197 154.294 26.9254C166.42 23.5744 177.968 33.1277 180.04 34.9795C196.066 33.3628 198.87 37.8896 200.576 40.5939C201.002 41.2699 201.338 41.799 201.703 41.946C202.282 42.1812 202.739 42.6221 202.983 43.2394C204.049 45.9437 201.033 52.1165 200.667 52.822L200.484 53.1747L200.088 53.2923C185.098 57.4369 166.116 56.0848 164.592 55.9672C162.398 56.2318 160.144 56.3199 157.98 56.3199ZM141.436 52.8808L141.558 52.9102C141.68 52.9396 153.593 55.4381 164.501 54.2035H164.684C164.866 54.2329 184.062 55.7614 199.205 51.705C200.362 49.2947 201.855 45.3264 201.277 43.8861C201.185 43.6803 201.094 43.6215 201.033 43.5921C200.088 43.21 199.57 42.3869 199.022 41.5345C197.529 39.1535 195.061 35.1853 179.827 36.802L179.4 36.8608L179.095 36.5668C178.973 36.4492 166.786 25.2205 154.629 28.7185L154.446 28.7773L154.263 28.7479C154.141 28.7185 141.405 27.1312 134.002 33.1865L133.88 33.2746L133.727 33.3334C133.362 33.4804 124.526 36.5962 119.041 33.2158C116.97 31.9225 115.659 29.9237 115.172 27.19C113.222 28.3364 109.291 31.1582 108.225 35.6556C107.189 39.9766 108.956 44.8561 113.466 50.1765L113.984 50.7938L113.405 51.3523C113.374 51.3817 113.252 51.5286 113.344 51.6756C113.618 52.2047 116.299 54.8208 141.314 52.9102L141.436 52.8808Z" fill="#843A5F"/>
<path d="M228.272 269.724H83.6976C81.6867 269.724 80.0414 268.137 80.0414 266.197V155.791C80.0414 153.851 81.6867 152.264 83.6976 152.264H228.272C230.283 152.264 231.928 153.851 231.928 155.791V266.197C231.928 268.137 230.283 269.724 228.272 269.724Z" fill="white"/>
<path d="M228.272 270.606H83.6976C81.1687 270.606 79.1273 268.637 79.1273 266.197V155.791C79.1273 153.351 81.1687 151.382 83.6976 151.382H228.272C230.801 151.382 232.842 153.351 232.842 155.791V266.197C232.842 268.637 230.801 270.606 228.272 270.606ZM83.6976 153.146C82.1742 153.146 80.9554 154.321 80.9554 155.791V266.197C80.9554 267.667 82.1742 268.842 83.6976 268.842H228.272C229.795 268.842 231.014 267.667 231.014 266.197V155.791C231.014 154.321 229.795 153.146 228.272 153.146H83.6976Z" fill="#843A5F"/>
<path d="M87.4149 218.813C83.4844 224.104 77.086 224.104 73.1555 218.813C69.225 213.522 69.225 204.968 73.1555 199.706C77.086 194.415 83.4844 194.415 87.4149 199.706C91.3453 204.968 91.3453 213.522 87.4149 218.813Z" fill="#E6D8DF"/>
<path d="M80.2852 223.634C77.2992 223.634 74.4961 222.105 72.4242 219.313C68.2805 213.757 68.2805 204.703 72.4242 199.148C74.4961 196.355 77.2992 194.827 80.2852 194.827C83.2711 194.827 86.0742 196.355 88.1461 199.148C92.2898 204.703 92.2898 213.757 88.1461 219.313C86.0742 222.105 83.2711 223.634 80.2852 223.634ZM80.2852 196.591C77.9086 196.591 75.6234 197.855 73.8867 200.177C70.1695 205.174 70.1695 213.287 73.8867 218.254C75.6234 220.577 77.8781 221.84 80.2852 221.84C82.6617 221.84 84.9469 220.577 86.6836 218.254C90.4008 213.257 90.4008 205.144 86.6836 200.177C84.9164 197.884 82.6617 196.591 80.2852 196.591Z" fill="#843A5F"/>
<path d="M239.18 218.813C235.249 224.104 228.851 224.104 224.92 218.813C220.99 213.522 220.99 204.968 224.92 199.706C228.851 194.415 235.249 194.415 239.18 199.706C243.11 204.968 243.11 213.522 239.18 218.813Z" fill="#E6D8DF"/>
<path d="M232.05 223.634C229.064 223.634 226.261 222.105 224.189 219.313C220.045 213.757 220.045 204.703 224.189 199.148C226.261 196.355 229.064 194.827 232.05 194.827C235.036 194.827 237.839 196.355 239.911 199.148C244.055 204.703 244.055 213.757 239.911 219.313C237.839 222.105 235.036 223.634 232.05 223.634ZM232.05 196.591C229.673 196.591 227.388 197.855 225.652 200.177C221.934 205.174 221.934 213.287 225.652 218.254C227.388 220.577 229.643 221.84 232.05 221.84C234.427 221.84 236.712 220.577 238.448 218.254C242.166 213.257 242.166 205.144 238.448 200.177C236.712 197.884 234.457 196.591 232.05 196.591Z" fill="#843A5F"/>
<path d="M154.934 107.702C154.934 107.702 141.345 105.526 137.14 109.7C137.14 109.7 131.808 114.315 134.763 120.135L135.921 123.751L141.71 121.546L143.843 125.632L145.397 120.782C145.58 120.194 146.494 120.224 146.616 120.841L147.286 124.251L151.064 119.753L157.798 125.279L158.62 120.194L162.52 123.516L166.024 119.753L167.334 124.456L171.752 119.753L175.561 124.603L178.09 120.4C178.09 120.4 181.99 114.815 178.791 111.729C178.791 111.729 178.242 106.438 173.977 106.732L154.934 107.702Z" fill="white"/>
<path d="M144.056 127.954L141.284 122.634L135.342 124.897L133.941 120.459C130.894 114.403 136.073 109.495 136.5 109.083C140.827 104.791 153.623 106.614 154.995 106.82L173.885 105.879C177.755 105.615 179.278 109.201 179.613 111.376C182.812 114.874 179.156 120.429 178.821 120.9L175.622 126.22L171.661 121.164L166.847 126.279L165.567 121.576L162.581 124.75L159.26 121.928L158.437 126.955L151.186 121.017L146.737 126.279L145.915 122.105L144.056 127.954ZM150.942 118.489L157.127 123.575L157.95 118.46L162.429 122.252L166.451 117.931L167.761 122.634L171.783 118.342L175.439 122.987L177.298 119.9C177.328 119.841 180.71 114.874 178.09 112.346L177.846 112.111L177.816 111.787C177.785 111.611 177.298 107.349 174.007 107.584L154.903 108.554L154.812 108.525C151.155 107.937 140.979 107.114 137.841 110.259L137.78 110.288C137.597 110.465 132.996 114.55 135.616 119.665L135.677 119.812L136.53 122.487L142.167 120.341L143.66 123.192L144.544 120.459C144.757 119.783 145.366 119.371 146.098 119.401C146.829 119.43 147.377 119.93 147.53 120.606L147.834 122.164L150.942 118.489Z" fill="#843A5F"/>
<path d="M204.08 261.112H120.717C118.706 261.112 117.061 259.524 117.061 257.584V177.161C117.061 175.221 118.706 173.634 120.717 173.634H204.08C206.091 173.634 207.736 175.221 207.736 177.161V257.584C207.736 259.524 206.091 261.112 204.08 261.112Z" fill="#E6D8DF"/>
<path d="M204.08 261.993H120.717C118.188 261.993 116.147 260.024 116.147 257.584V177.161C116.147 174.721 118.188 172.752 120.717 172.752H204.08C206.609 172.752 208.65 174.721 208.65 177.161V257.584C208.65 260.024 206.609 261.993 204.08 261.993ZM120.717 174.515C119.194 174.515 117.975 175.691 117.975 177.161V257.584C117.975 259.054 119.194 260.23 120.717 260.23H204.08C205.603 260.23 206.822 259.054 206.822 257.584V177.161C206.822 175.691 205.603 174.515 204.08 174.515H120.717Z" fill="#843A5F"/>
<path d="M191.13 248.619H107.737C105.727 248.619 104.081 247.032 104.081 245.092V164.668C104.081 162.728 105.727 161.141 107.737 161.141H191.1C193.111 161.141 194.756 162.728 194.756 164.668V245.092C194.787 247.032 193.141 248.619 191.13 248.619Z" fill="white"/>
<path d="M191.13 249.501H107.737C105.209 249.501 103.167 247.531 103.167 245.092V164.668C103.167 162.228 105.209 160.259 107.737 160.259H191.1C193.629 160.259 195.67 162.228 195.67 164.668V245.092C195.701 247.531 193.659 249.501 191.13 249.501ZM107.737 162.023C106.214 162.023 104.995 163.198 104.995 164.668V245.092C104.995 246.561 106.214 247.737 107.737 247.737H191.1C192.623 247.737 193.842 246.561 193.842 245.092V164.668C193.842 163.198 192.623 162.023 191.1 162.023H107.737Z" fill="#843A5F"/>
<path d="M111.302 230.394L109.84 229.336L130.01 203.41L139.73 215.903L159.169 190.918L168.858 203.41L187.566 179.336L189.028 180.394L168.858 206.35L159.169 193.857L139.73 218.842L130.01 206.35L111.302 230.394Z" fill="#843A5F"/>
</svg>
