<svg width="304" height="304" viewBox="0 0 304 304" fill="none" xmlns="http://www.w3.org/2000/svg">
<path d="M88.6172 192.405C88.6172 200.748 90.2605 209.009 93.4532 216.717C96.646 224.425 101.326 231.429 107.225 237.328C113.124 243.227 120.128 247.907 127.836 251.1C135.544 254.293 143.805 255.936 152.148 255.936C160.491 255.936 168.753 254.293 176.461 251.1C184.169 247.907 191.172 243.227 197.072 237.328C202.971 231.429 207.651 224.425 210.844 216.717C214.036 209.009 215.68 200.748 215.68 192.405C215.68 184.062 214.036 175.8 210.844 168.092C207.651 160.384 202.971 153.381 197.072 147.481C191.172 141.582 184.169 136.902 176.461 133.709C168.753 130.517 160.491 128.873 152.148 128.873C143.805 128.873 135.544 130.517 127.836 133.709C120.128 136.902 113.124 141.582 107.225 147.481C101.326 153.381 96.646 160.384 93.4532 168.092C90.2605 175.8 88.6172 184.062 88.6172 192.405Z" fill="#AE9AA4"/>
<path d="M152.148 169.041L131.248 132.822H173.048L152.148 169.041Z" fill="white"/>
<path d="M152.148 129.764C157.789 129.764 163.281 130.536 168.506 131.931H135.82C141.016 130.506 146.508 129.764 152.148 129.764ZM158.828 155.681L152.148 167.23L145.469 155.681H158.828ZM142.589 150.664L132.792 133.683H152.386L142.589 150.664ZM152.772 133.712H171.534L162.153 149.952L152.772 133.712ZM152.148 255.075C117.592 255.075 89.5078 226.961 89.5078 192.434C89.5078 165.448 106.667 142.381 130.655 133.594L141.55 152.475L139.68 155.711H143.42L152.148 170.822L160.877 155.711H165.448L163.162 151.763L173.642 133.594C197.63 142.381 214.789 165.448 214.789 192.434C214.789 226.961 186.705 255.075 152.148 255.075ZM197.719 146.834C191.039 140.155 183.172 135.137 174.592 131.961L174.622 131.902H174.473C167.437 129.319 159.897 127.953 152.178 127.953C144.459 127.953 136.919 129.319 129.883 131.902H129.734L129.764 131.961C121.184 135.137 113.287 140.155 106.637 146.834C94.4656 159.006 87.7562 175.186 87.7562 192.405C87.7562 209.623 94.4656 225.803 106.637 237.975C118.809 250.147 134.989 256.856 152.208 256.856C169.427 256.856 185.606 250.147 197.778 237.975C209.95 225.803 216.659 209.623 216.659 192.405C216.659 175.186 209.891 159.006 197.719 146.834Z" fill="#843A5F"/>
<path d="M110.111 51.8344V109.339C110.111 122.253 120.68 132.822 133.594 132.822H171.534C184.448 132.822 195.017 122.253 195.017 109.339V51.8344H110.111Z" fill="#E6D8DF"/>
<path d="M171.534 133.712H133.594C120.145 133.712 109.22 122.787 109.22 109.339V51.8344H111.002V109.339C111.002 121.808 121.125 131.931 133.594 131.931H171.534C184.003 131.931 194.127 121.808 194.127 109.339V51.8344H195.908V109.339C195.908 122.758 184.983 133.712 171.534 133.712Z" fill="#843A5F"/>
<path d="M108.478 76.2079C108.478 81.554 110.602 86.6813 114.382 90.4616C118.163 94.2419 123.29 96.3657 128.636 96.3657C133.982 96.3657 139.109 94.2419 142.89 90.4616C146.67 86.6813 148.794 81.554 148.794 76.2079C148.794 70.8617 146.67 65.7345 142.89 61.9541C139.109 58.1738 133.982 56.05 128.636 56.05C123.29 56.05 118.163 58.1738 114.382 61.9541C110.602 65.7345 108.478 70.8617 108.478 76.2079Z" fill="white"/>
<path d="M128.636 97.2563C117.028 97.2563 107.588 87.8157 107.588 76.2079C107.588 64.6001 117.028 55.1594 128.636 55.1594C140.244 55.1594 149.684 64.6001 149.684 76.2079C149.684 87.8157 140.244 97.2563 128.636 97.2563ZM128.636 56.9407C118.008 56.9407 109.369 65.5797 109.369 76.2079C109.369 86.836 118.008 95.475 128.636 95.475C139.264 95.475 147.903 86.836 147.903 76.2079C147.903 65.5797 139.264 56.9407 128.636 56.9407Z" fill="#843A5F"/>
<path d="M156.156 76.2079C156.156 78.855 156.678 81.4763 157.691 83.9219C158.704 86.3676 160.189 88.5898 162.06 90.4616C163.932 92.3334 166.154 93.8182 168.6 94.8313C171.046 95.8443 173.667 96.3657 176.314 96.3657C178.961 96.3657 181.582 95.8443 184.028 94.8313C186.474 93.8182 188.696 92.3334 190.568 90.4616C192.44 88.5898 193.924 86.3676 194.937 83.9219C195.95 81.4763 196.472 78.855 196.472 76.2079C196.472 73.5607 195.95 70.9395 194.937 68.4938C193.924 66.0481 192.44 63.826 190.568 61.9541C188.696 60.0823 186.474 58.5975 184.028 57.5845C181.582 56.5714 178.961 56.05 176.314 56.05C173.667 56.05 171.046 56.5714 168.6 57.5845C166.154 58.5975 163.932 60.0823 162.06 61.9541C160.189 63.826 158.704 66.0481 157.691 68.4938C156.678 70.9395 156.156 73.5607 156.156 76.2079Z" fill="white"/>
<path d="M176.314 97.2563C164.706 97.2563 155.266 87.8157 155.266 76.2079C155.266 64.6001 164.706 55.1594 176.314 55.1594C187.922 55.1594 197.362 64.6001 197.362 76.2079C197.392 87.8157 187.922 97.2563 176.314 97.2563ZM176.314 56.9407C165.686 56.9407 157.047 65.5797 157.047 76.2079C157.047 86.836 165.686 95.475 176.314 95.475C186.942 95.475 195.581 86.836 195.581 76.2079C195.581 65.5797 186.942 56.9407 176.314 56.9407Z" fill="#843A5F"/>
<path d="M158.323 80.5719H156.542C156.542 78.375 154.761 76.5938 152.564 76.5938C150.367 76.5938 148.586 78.375 148.586 80.5719H146.805C146.805 77.3953 149.388 74.8125 152.564 74.8125C155.741 74.8125 158.323 77.3953 158.323 80.5719ZM152.505 119.759C145.647 119.759 138.7 118.097 138.7 114.92H140.481C140.481 115.959 144.727 117.978 152.505 117.978C160.283 117.978 164.528 115.959 164.528 114.92H166.309C166.309 118.097 159.363 119.759 152.505 119.759ZM198.075 42.75C197.838 42.1266 197.392 41.6813 196.828 41.4438C196.442 41.2953 196.145 40.7609 195.73 40.0781C194.067 37.3469 191.306 32.775 175.72 34.4078C173.702 32.5375 162.45 22.8891 150.634 26.2734C148.912 26.0656 137.216 24.9078 129.823 31.0828C128.725 31.4687 121.481 33.8141 117.236 31.0828C115.395 29.8953 114.327 27.8766 114.119 25.0266L114 23.75L112.842 24.2844C112.545 24.4328 105.598 27.6687 103.966 34.6453C102.867 39.4547 104.559 44.7391 109.042 50.3797C108.864 50.825 108.805 51.3891 109.072 52.0125C109.695 53.3781 111.773 54.2094 115.603 54.6547C120.442 55.2188 127.953 55.1 137.958 54.2984C139.056 54.5359 146.122 55.9609 154.197 55.9609C156.305 55.9609 158.502 55.8719 160.669 55.6047C162.123 55.7234 180.648 57.0594 195.255 52.9031L195.641 52.7844L195.819 52.4281C196.145 51.7156 199.114 45.4813 198.075 42.75Z" fill="#843A5F"/>
<path d="M222.686 271.463H81.8187C79.8594 271.463 78.2562 269.859 78.2562 267.9V156.423C78.2562 154.464 79.8594 152.861 81.8187 152.861H222.686C224.645 152.861 226.248 154.464 226.248 156.423V267.93C226.248 269.859 224.645 271.463 222.686 271.463Z" fill="white"/>
<path d="M222.686 272.353H81.8187C79.3547 272.353 77.3656 270.364 77.3656 267.9V156.423C77.3656 153.959 79.3547 151.97 81.8187 151.97H222.686C225.15 151.97 227.139 153.959 227.139 156.423V267.93C227.139 270.364 225.15 272.353 222.686 272.353ZM81.8187 153.752C80.3344 153.752 79.1469 154.939 79.1469 156.423V267.93C79.1469 269.414 80.3344 270.602 81.8187 270.602H222.686C224.17 270.602 225.358 269.414 225.358 267.93V156.423C225.358 154.939 224.17 153.752 222.686 153.752H81.8187Z" fill="#843A5F"/>
<path d="M85.4406 220.044C81.6109 225.387 75.3765 225.387 71.5468 220.044C67.7171 214.7 67.7171 206.061 71.5468 200.747C75.3765 195.403 81.6109 195.403 85.4406 200.747C89.2703 206.061 89.2703 214.7 85.4406 220.044Z" fill="#E6D8DF"/>
<path d="M78.4938 224.942C75.5844 224.942 72.8531 223.398 70.8344 220.578C66.7969 214.967 66.7969 205.823 70.8344 200.212C72.8531 197.392 75.5844 195.848 78.4938 195.848C81.4031 195.848 84.1344 197.392 86.1532 200.212C90.1907 205.823 90.1907 214.967 86.1532 220.578C84.1344 223.398 81.4031 224.942 78.4938 224.942ZM78.4938 197.63C76.1781 197.63 73.9516 198.906 72.2594 201.252C68.6375 206.298 68.6375 214.492 72.2594 219.509C73.9516 221.855 76.1485 223.131 78.4938 223.131C80.8094 223.131 83.036 221.855 84.7281 219.509C88.35 214.462 88.35 206.269 84.7281 201.252C83.036 198.906 80.8391 197.63 78.4938 197.63Z" fill="#843A5F"/>
<path d="M233.344 220.044C229.514 225.387 223.28 225.387 219.45 220.044C215.62 214.7 215.62 206.061 219.45 200.747C223.28 195.403 229.514 195.403 233.344 200.747C237.173 206.061 237.173 214.7 233.344 220.044Z" fill="#E6D8DF"/>
<path d="M226.397 224.942C223.487 224.942 220.756 223.398 218.737 220.578C214.7 214.967 214.7 205.823 218.737 200.212C220.756 197.392 223.487 195.848 226.397 195.848C229.306 195.848 232.037 197.392 234.056 200.212C238.094 205.823 238.094 214.967 234.056 220.578C232.037 223.398 229.306 224.942 226.397 224.942ZM226.397 197.63C224.081 197.63 221.855 198.906 220.162 201.252C216.541 206.298 216.541 214.492 220.162 219.509C221.855 221.855 224.052 223.131 226.397 223.131C228.712 223.131 230.939 221.855 232.631 219.509C236.253 214.462 236.253 206.269 232.631 201.252C230.939 198.906 228.712 197.63 226.397 197.63Z" fill="#843A5F"/>
<path d="M120.977 233.373H107.914C105.955 233.373 104.352 234.977 104.352 236.936V258.667C104.352 260.627 105.955 262.23 107.914 262.23H120.977C122.936 262.23 124.539 260.627 124.539 258.667V236.936C124.539 234.977 122.936 233.373 120.977 233.373Z" fill="#E6D8DF"/>
<path d="M120.977 263.12H107.914C105.45 263.12 103.461 261.131 103.461 258.667V236.936C103.461 234.472 105.45 232.483 107.914 232.483H120.977C123.441 232.483 125.43 234.472 125.43 236.936V258.667C125.43 261.102 123.441 263.12 120.977 263.12ZM107.914 234.264C106.43 234.264 105.242 235.452 105.242 236.936V258.667C105.242 260.152 106.43 261.339 107.914 261.339H120.977C122.461 261.339 123.648 260.152 123.648 258.667V236.936C123.648 235.452 122.461 234.264 120.977 234.264H107.914Z" fill="#843A5F"/>
<path d="M196.709 161.233H183.647C181.687 161.233 180.084 162.836 180.084 164.795V258.667C180.084 260.627 181.687 262.23 183.647 262.23H196.709C198.669 262.23 200.272 260.627 200.272 258.667V164.795C200.272 162.836 198.669 161.233 196.709 161.233Z" fill="#E6D8DF"/>
<path d="M196.709 263.12H183.647C181.183 263.12 179.194 261.131 179.194 258.667V164.795C179.194 162.331 181.183 160.342 183.647 160.342H196.709C199.173 160.342 201.162 162.331 201.162 164.795V258.667C201.162 261.102 199.173 263.12 196.709 263.12ZM183.647 162.123C182.162 162.123 180.975 163.311 180.975 164.795V258.667C180.975 260.152 182.162 261.339 183.647 261.339H196.709C198.194 261.339 199.381 260.152 199.381 258.667V164.795C199.381 163.311 198.194 162.123 196.709 162.123H183.647Z" fill="#843A5F"/>
<path d="M158.858 204.517H145.795C143.836 204.517 142.233 206.12 142.233 208.08V258.667C142.233 260.627 143.836 262.23 145.795 262.23H158.858C160.817 262.23 162.42 260.627 162.42 258.667V208.08C162.42 206.12 160.817 204.517 158.858 204.517Z" fill="#E6D8DF"/>
<path d="M158.858 263.12H145.795C143.331 263.12 141.342 261.131 141.342 258.667V208.08C141.342 205.616 143.331 203.627 145.795 203.627H158.858C161.322 203.627 163.311 205.616 163.311 208.08V258.667C163.311 261.102 161.292 263.12 158.858 263.12ZM145.766 205.408C144.281 205.408 143.094 206.595 143.094 208.08V258.667C143.094 260.152 144.281 261.339 145.766 261.339H158.828C160.312 261.339 161.5 260.152 161.5 258.667V208.08C161.5 206.595 160.312 205.408 158.828 205.408H145.766Z" fill="#843A5F"/>
</svg>
