<svg width="249" height="249" viewBox="0 0 249 249" fill="none" xmlns="http://www.w3.org/2000/svg">
<path d="M124.67 114.822L114.141 133.084H135.224L124.67 114.822Z" fill="#843A5F"/>
<path d="M154.069 42.4564H95.5391L77.5936 126.834L124.792 179.285L171.747 127.126L171.99 126.834L154.069 42.4564Z" fill="#843A5F"/>
<path d="M72.5602 159.71C72.5602 173.511 78.0427 186.747 87.8015 196.506C97.5604 206.265 110.796 211.747 124.597 211.747C138.398 211.747 151.634 206.265 161.393 196.506C171.152 186.747 176.634 173.511 176.634 159.71C176.634 145.909 171.152 132.673 161.393 122.914C151.634 113.156 138.398 107.673 124.597 107.673C110.796 107.673 97.5604 113.156 87.8015 122.914C78.0427 132.673 72.5602 145.909 72.5602 159.71Z" fill="#AE9AA4"/>
<path d="M124.597 212.477C110.494 212.477 97.2414 206.981 87.2716 197.011C77.3019 187.042 71.8064 173.789 71.8064 159.686C71.8064 145.582 77.3019 132.33 87.2716 122.36C97.2414 112.39 110.494 106.895 124.597 106.895C138.701 106.895 151.953 112.39 161.923 122.36C171.893 132.33 177.388 145.582 177.388 159.686C177.388 173.789 171.893 187.042 161.923 197.011C151.929 206.981 138.677 212.477 124.597 212.477ZM124.597 108.403C96.293 108.403 73.2897 131.43 73.2897 159.71C73.2897 187.99 96.3173 211.018 124.597 211.018C152.902 211.018 175.905 187.99 175.905 159.71C175.905 131.43 152.877 108.403 124.597 108.403Z" fill="#843A5F"/>
<path d="M124.597 140.549L107.454 110.907H141.716L124.597 140.549Z" fill="white"/>
<path d="M124.597 142.008L106.214 110.153H142.981L124.597 142.008ZM108.719 111.637L124.573 139.114L140.427 111.637H108.719ZM164.184 45.0826L164.136 44.9853C162.725 40.5111 160.561 36.3287 157.741 32.5596L157.716 32.511C156.379 30.7359 154.871 29.0337 153.242 27.4775C148.476 22.906 142.616 19.5017 136.294 17.6537C132.5 16.5351 128.561 15.9758 124.573 15.9758C121.096 15.9758 117.619 16.4135 114.287 17.2646C113.849 17.3862 113.509 17.4591 113.193 17.5564C106.676 19.4044 100.646 22.8817 95.7581 27.6234C89.2413 33.9213 85.0345 41.9701 83.6242 50.8699C83.2837 53.0097 83.1135 55.2225 83.1135 57.4353C83.1135 61.1071 83.5999 64.7302 84.5482 68.2318C85.0345 70.0798 85.6667 71.9036 86.4206 73.63C92.9374 88.9737 107.916 98.8705 124.597 98.8705C140.038 98.8705 154.093 90.384 161.291 76.7425C162.336 74.7972 163.212 72.706 163.917 70.5905C165.327 66.3594 166.057 61.9338 166.057 57.4353C166.057 53.2286 165.425 49.0705 164.184 45.0826Z" fill="#843A5F"/>
<path d="M88.7306 71.5875C88.7306 77.2204 89.6684 82.7982 91.4904 88.0024C93.3124 93.2065 95.983 97.9351 99.3497 101.918C102.716 105.901 106.713 109.061 111.112 111.217C115.511 113.372 120.225 114.482 124.986 114.482C129.748 114.482 134.462 113.372 138.861 111.217C143.26 109.061 147.256 105.901 150.623 101.918C153.99 97.9351 156.66 93.2065 158.482 88.0024C160.304 82.7982 161.242 77.2204 161.242 71.5875C161.242 60.2113 157.422 49.301 150.623 41.2568C143.824 33.2126 134.602 28.6934 124.986 28.6934C115.371 28.6934 106.149 33.2126 99.3497 41.2568C92.5504 49.301 88.7306 60.2113 88.7306 71.5875Z" fill="#E6D8DF"/>
<path d="M124.986 115.211C104.585 115.211 88.0011 95.6364 88.0011 71.5875C88.0011 47.5386 104.609 27.9639 124.986 27.9639C145.364 27.9639 161.972 47.5386 161.972 71.5875C161.972 95.6364 145.388 115.211 124.986 115.211ZM124.986 29.4229C105.387 29.4229 89.4601 48.341 89.4601 71.5875C89.4601 94.834 105.412 113.752 124.986 113.752C144.585 113.752 160.513 94.834 160.513 71.5875C160.513 48.341 144.585 29.4229 124.986 29.4229Z" fill="#843A5F"/>
<path d="M124.865 100.208C119.248 100.208 113.558 98.8462 113.558 96.2444H115.017C115.017 97.0955 118.494 98.749 124.865 98.749C131.236 98.749 134.713 97.0955 134.713 96.2444H136.172C136.172 98.8462 130.482 100.208 124.865 100.208Z" fill="#843A5F"/>
<path d="M182.373 224.465H66.9917C65.3868 224.465 64.0737 223.152 64.0737 221.547V130.214C64.0737 128.609 65.3868 127.296 66.9917 127.296H182.373C183.978 127.296 185.291 128.609 185.291 130.214V221.547C185.291 223.152 183.978 224.465 182.373 224.465Z" fill="white"/>
<path d="M182.373 225.194H66.9917C64.9734 225.194 63.3442 223.565 63.3442 221.547V130.214C63.3442 128.196 64.9734 126.567 66.9917 126.567H182.373C184.391 126.567 186.021 128.196 186.021 130.214V221.547C186.021 223.565 184.391 225.194 182.373 225.194ZM66.9917 128.026C65.7759 128.026 64.8032 128.999 64.8032 130.214V221.547C64.8032 222.763 65.7759 223.735 66.9917 223.735H182.373C183.589 223.735 184.562 222.763 184.562 221.547V130.214C184.562 128.999 183.589 128.026 182.373 128.026H66.9917Z" fill="#843A5F"/>
<path d="M69.9583 182.349C66.8215 186.726 61.715 186.726 58.5782 182.349C55.4414 177.972 55.4414 170.896 58.5782 166.543C61.715 162.166 66.8215 162.166 69.9583 166.543C73.0951 170.896 73.0951 177.972 69.9583 182.349Z" fill="#E6D8DF"/>
<path d="M64.2683 186.361C61.8853 186.361 59.6482 185.097 57.9947 182.786C54.6876 178.191 54.6876 170.701 57.9947 166.105C59.6482 163.795 61.8853 162.531 64.2683 162.531C66.6513 162.531 68.8884 163.795 70.5419 166.105C73.849 170.701 73.849 178.191 70.5419 182.786C68.8884 185.072 66.6513 186.361 64.2683 186.361ZM64.2683 163.99C62.3716 163.99 60.5479 165.035 59.1619 166.956C56.1953 171.09 56.1953 177.802 59.1619 181.911C60.5479 183.832 62.3473 184.878 64.2683 184.878C66.1893 184.878 67.9887 183.832 69.3748 181.911C72.3414 177.777 72.3414 171.066 69.3748 166.956C67.9644 165.035 66.165 163.99 64.2683 163.99Z" fill="#843A5F"/>
<path d="M191.078 182.349C187.941 186.726 182.835 186.726 179.698 182.349C176.561 177.972 176.561 170.896 179.698 166.543C182.835 162.166 187.941 162.166 191.078 166.543C194.215 170.896 194.215 177.972 191.078 182.349Z" fill="#E6D8DF"/>
<path d="M185.388 186.361C183.005 186.361 180.768 185.097 179.115 182.786C175.808 178.191 175.808 170.701 179.115 166.105C180.768 163.795 183.005 162.531 185.388 162.531C187.771 162.531 190.008 163.795 191.662 166.105C194.969 170.701 194.969 178.191 191.662 182.786C190.008 185.072 187.771 186.361 185.388 186.361ZM185.388 163.99C183.492 163.99 181.668 165.035 180.282 166.956C177.315 171.09 177.315 177.802 180.282 181.911C181.668 183.832 183.467 184.878 185.388 184.878C187.309 184.878 189.109 183.832 190.495 181.911C193.461 177.777 193.461 171.066 190.495 166.956C189.109 165.035 187.309 163.99 185.388 163.99Z" fill="#843A5F"/>
<path d="M154.482 33.4351L141.765 26.3347L141.108 26.821C139.892 26.0672 136.804 25.6295 129.047 26.1888C123.309 26.6022 117.57 27.3803 117.521 27.4046L117.424 27.429L94.4692 37.6905L86.688 42.6267L87.8552 73.3626C87.7093 74.311 87.7093 74.8459 87.7093 74.9189V75.0405L89.606 80.7305L89.3385 73.4599C89.6789 71.1985 90.7731 66.5297 94.1045 61.0342C98.4571 53.8852 107.673 43.8182 126.81 36.5719C127.54 36.3044 128.22 36.037 128.877 35.7695L128.488 36.0613H130.725C141.303 36.0613 148.914 47.1252 153.461 56.4141C158.446 66.627 160.877 76.9615 160.902 77.0831L162.288 83.0892L162.579 45.5933L154.482 33.4351Z" fill="#843A5F"/>
<path d="M139.09 77.9827C139.09 79.0339 139.851 80.0421 141.205 80.7854C142.559 81.5287 144.396 81.9463 146.312 81.9463C148.227 81.9463 150.064 81.5287 151.419 80.7854C152.773 80.0421 153.534 79.0339 153.534 77.9827C153.534 76.9315 152.773 75.9234 151.419 75.1801C150.064 74.4368 148.227 74.0192 146.312 74.0192C144.396 74.0192 142.559 74.4368 141.205 75.1801C139.851 75.9234 139.09 76.9315 139.09 77.9827Z" fill="#FF9FB9"/>
<path d="M140.549 62.5662C137.752 62.5662 135.467 65.6544 135.467 69.472C135.467 73.2897 137.752 76.3536 140.549 76.3536C143.345 76.3536 145.631 73.2654 145.631 69.4477C145.631 65.63 143.345 62.5662 140.549 62.5662Z" fill="#843A5F"/>
<path d="M138.36 70.9553C138.36 71.2714 138.417 71.5845 138.527 71.8765C138.637 72.1686 138.798 72.434 139.001 72.6575C139.205 72.8811 139.446 73.0584 139.711 73.1794C139.977 73.3004 140.261 73.3626 140.549 73.3626C140.836 73.3626 141.121 73.3004 141.386 73.1794C141.652 73.0584 141.893 72.8811 142.096 72.6575C142.3 72.434 142.461 72.1686 142.571 71.8765C142.681 71.5845 142.737 71.2714 142.737 70.9553C142.737 70.6392 142.681 70.3261 142.571 70.0341C142.461 69.742 142.3 69.4766 142.096 69.2531C141.893 69.0295 141.652 68.8522 141.386 68.7312C141.121 68.6102 140.836 68.548 140.549 68.548C140.261 68.548 139.977 68.6102 139.711 68.7312C139.446 68.8522 139.205 69.0295 139.001 69.2531C138.798 69.4766 138.637 69.742 138.527 70.0341C138.417 70.3261 138.36 70.6392 138.36 70.9553Z" fill="white"/>
<path d="M133.011 61.6907C135.029 59.7211 137.631 58.3837 140.354 57.7028C143.807 56.8274 146.385 58.4566 148.816 60.7667C149.157 61.0828 149.667 60.5722 149.327 60.2561C147.017 58.0433 144.342 56.2195 140.987 56.8031C137.85 57.3624 134.762 58.943 132.476 61.1558C132.16 61.4962 132.67 62.0068 133.011 61.6907Z" fill="#843A5F"/>
<path d="M96.4631 77.9827C96.4631 78.5032 96.6499 79.0187 97.0129 79.4995C97.3758 79.9804 97.9078 80.4174 98.5784 80.7854C99.249 81.1535 100.045 81.4454 100.921 81.6446C101.798 81.8438 102.737 81.9463 103.685 81.9463C104.634 81.9463 105.573 81.8438 106.449 81.6446C107.325 81.4454 108.121 81.1535 108.792 80.7854C109.462 80.4174 109.994 79.9804 110.357 79.4995C110.72 79.0187 110.907 78.5032 110.907 77.9827C110.907 77.4622 110.72 76.9468 110.357 76.4659C109.994 75.9851 109.462 75.5481 108.792 75.1801C108.121 74.812 107.325 74.5201 106.449 74.3209C105.573 74.1217 104.634 74.0192 103.685 74.0192C102.737 74.0192 101.798 74.1217 100.921 74.3209C100.045 74.5201 99.249 74.812 98.5784 75.1801C97.9078 75.5481 97.3758 75.9851 97.0129 76.4659C96.6499 76.9468 96.4631 77.4622 96.4631 77.9827Z" fill="#FF9FB9"/>
<path d="M109.448 62.5662C106.652 62.5662 104.366 65.6544 104.366 69.472C104.366 73.2897 106.652 76.3779 109.448 76.3779C112.244 76.3779 114.53 73.2897 114.53 69.472C114.53 65.6544 112.244 62.5662 109.448 62.5662Z" fill="#843A5F"/>
<path d="M107.26 70.9553C107.26 71.5938 107.49 72.2061 107.901 72.6575C108.311 73.109 108.868 73.3626 109.448 73.3626C110.029 73.3626 110.585 73.109 110.996 72.6575C111.406 72.2061 111.637 71.5938 111.637 70.9553C111.637 70.3168 111.406 69.7045 110.996 69.2531C110.585 68.8016 110.029 68.548 109.448 68.548C108.868 68.548 108.311 68.8016 107.901 69.2531C107.49 69.7045 107.26 70.3168 107.26 70.9553Z" fill="white"/>
<path d="M117.497 61.1557C115.235 58.9429 112.123 57.3624 108.986 56.8031C105.63 56.2195 102.98 58.0189 100.646 60.256C100.305 60.5721 100.816 61.1071 101.156 60.7666C103.564 58.4566 106.165 56.8274 109.618 57.7028C112.342 58.3836 114.944 59.721 116.962 61.6907C117.327 62.0068 117.837 61.4961 117.497 61.1557Z" fill="#843A5F"/>
<path d="M93.8127 165.546C93.8127 169.582 94.6078 173.579 96.1524 177.308C97.697 181.037 99.961 184.426 102.815 187.28C105.669 190.134 109.057 192.398 112.787 193.942C116.516 195.487 120.512 196.282 124.549 196.282C128.585 196.282 132.582 195.487 136.311 193.942C140.04 192.398 143.428 190.134 146.282 187.28C149.136 184.426 151.4 181.037 152.945 177.308C154.49 173.579 155.285 169.582 155.285 165.546C155.285 161.51 154.49 157.513 152.945 153.784C151.4 150.055 149.136 146.667 146.282 143.813C143.428 140.958 140.04 138.694 136.311 137.15C132.582 135.605 128.585 134.81 124.549 134.81C120.512 134.81 116.516 135.605 112.787 137.15C109.057 138.694 105.669 140.958 102.815 143.813C99.961 146.667 97.697 150.055 96.1524 153.784C94.6078 157.513 93.8127 161.51 93.8127 165.546Z" fill="#E6D8DF"/>
<path d="M124.549 197.133C107.114 197.133 92.9617 182.957 92.9617 165.546C92.9617 148.111 107.138 133.959 124.549 133.959C141.959 133.959 156.136 148.136 156.136 165.546C156.136 182.957 141.959 197.133 124.549 197.133ZM124.549 135.661C108.086 135.661 94.6881 149.06 94.6881 165.522C94.6881 181.984 108.086 195.382 124.549 195.382C141.011 195.382 154.409 182.008 154.409 165.546C154.409 149.06 141.011 135.661 124.549 135.661Z" fill="#843A5F"/>
<path d="M123.989 184.318C116.743 184.318 110.834 178.409 110.834 171.163H112.561C112.561 177.461 117.691 182.592 123.989 182.592C130.287 182.592 135.418 177.461 135.418 171.163H137.145C137.145 178.409 131.236 184.318 123.989 184.318Z" fill="#843A5F"/>
<path d="M119.272 162.555H117.546C117.546 156.257 112.415 151.126 106.117 151.126V149.4C113.363 149.4 119.272 155.309 119.272 162.555ZM131.552 161.412H129.825C129.825 154.166 135.734 148.257 142.98 148.257V149.984C136.683 149.984 131.552 155.114 131.552 161.412Z" fill="#843A5F"/>
<path d="M105.387 203.042L97.5331 216.659H113.266L105.387 203.042ZM124.695 203.042L116.84 216.659H132.573L124.695 203.042ZM143.686 203.042L135.831 216.659H151.564L143.686 203.042Z" fill="#843A5F"/>
</svg>
