<svg width="78" height="75" viewBox="0 0 78 75" fill="none" xmlns="http://www.w3.org/2000/svg">
<path d="M39 9.375C40.3462 9.375 41.4375 10.4243 41.4375 11.7188V18.75C41.4375 20.0444 40.3462 21.0938 39 21.0938C37.6538 21.0938 36.5625 20.0444 36.5625 18.75V11.7188C36.5625 10.4243 37.6538 9.375 39 9.375Z" fill="#F7F7F7"/>
<path d="M18.1946 17.4948C19.1465 16.5795 20.6899 16.5795 21.6418 17.4948L26.0986 21.7802C27.0505 22.6955 27.0505 24.1795 26.0986 25.0948C25.1467 26.0101 23.6033 26.0101 22.6514 25.0948L18.1946 20.8094C17.2427 19.8941 17.2427 18.4101 18.1946 17.4948Z" fill="#F7F7F7"/>
<path d="M9.75 37.5C9.75 36.2056 10.8413 35.1562 12.1875 35.1562H19.9182C21.2644 35.1562 22.3557 36.2056 22.3557 37.5C22.3557 38.7944 21.2644 39.8438 19.9182 39.8438H12.1875C10.8413 39.8438 9.75 38.7944 9.75 37.5Z" fill="#F7F7F7"/>
<path d="M56.0625 37.5C56.0625 36.2056 57.1538 35.1562 58.5 35.1562L65.8125 35.1562C67.1587 35.1562 68.25 36.2056 68.25 37.5C68.25 38.7944 67.1587 39.8438 65.8125 39.8438H58.5C57.1538 39.8438 56.0625 38.7944 56.0625 37.5Z" fill="#F7F7F7"/>
<path d="M59.7399 17.5979C59.0404 16.9253 57.9204 16.8835 57.1688 17.502L36.7929 34.2683C34.8293 35.884 34.713 38.7656 36.5405 40.5228C38.4102 42.3205 41.4901 42.1556 43.1405 40.1693L59.8804 20.0228C60.4826 19.298 60.4221 18.2539 59.7399 17.5979Z" fill="#F7F7F7"/>
<path fill-rule="evenodd" clip-rule="evenodd" d="M32.4858 74.4792C14.0477 71.4981 0 56.0765 0 37.5C0 16.7893 17.4609 0 39 0C60.5391 0 78 16.7893 78 37.5C78 44.6081 75.9432 51.2543 72.3707 56.9184C65.5341 67.7575 53.1468 75 39.0002 75C36.7806 75 34.6041 74.8217 32.4858 74.4792ZM9.74526 54.403C18.351 49.6153 28.3428 46.875 39.0002 46.875C49.6575 46.875 59.6492 49.6152 68.2548 54.4028C71.3466 49.466 73.125 43.6827 73.125 37.5C73.125 19.3782 57.8467 4.6875 39 4.6875C20.1533 4.6875 4.875 19.3782 4.875 37.5C4.875 43.6828 6.65344 49.4662 9.74526 54.403Z" fill="#F7F7F7"/>
</svg>
